<?xml version="1.0" encoding="UTF-8"?>
<svg version="1.1" xmlns="http://www.w3.org/2000/svg" width="106" height="110">
<path d="M0 0 C1.32 0 2.64 0 4 0 C4 1.65 4 3.3 4 5 C5.21236328 4.96519531 5.21236328 4.96519531 6.44921875 4.9296875 C7.51785156 4.91164063 8.58648438 4.89359375 9.6875 4.875 C10.74324219 4.85179687 11.79898437 4.82859375 12.88671875 4.8046875 C16.02251859 5.00141271 18.17645373 5.66942346 21 7 C21.33 4.69 21.66 2.38 22 0 C24.475 0.495 24.475 0.495 27 1 C27 3.97 27 6.94 27 10 C28.64630328 9.85957123 30.29204179 9.71250671 31.9375 9.5625 C32.85402344 9.48128906 33.77054688 9.40007813 34.71484375 9.31640625 C36.96159732 9.23955024 36.96159732 9.23955024 38 8 C40.33160055 7.90090698 42.66629942 7.87029496 45 7.875 C46.27875 7.87242187 47.5575 7.86984375 48.875 7.8671875 C52 8 52 8 53 9 C54.68183948 9.23287008 56.3712416 9.41264166 58.0625 9.5625 C58.98160156 9.64628906 59.90070313 9.73007813 60.84765625 9.81640625 C61.55792969 9.87699219 62.26820312 9.93757812 63 10 C62.938125 9.0925 62.87625 8.185 62.8125 7.25 C63 4 63 4 64.0625 1.625 C66.33332026 -0.27955893 67.78516477 -0.50228851 70.71484375 -0.328125 C78.60579664 0.8049349 86.7924103 2.53481264 94 6 C94.703125 8.09765625 94.703125 8.09765625 95 10 C95.99 10 96.98 10 98 10 C98 11.32 98 12.64 98 14 C97.01 14 96.02 14 95 14 C95.02320312 14.80824219 95.04640625 15.61648438 95.0703125 16.44921875 C95.08835937 17.51785156 95.10640625 18.58648438 95.125 19.6875 C95.14820312 20.74324219 95.17140625 21.79898437 95.1953125 22.88671875 C94.99858729 26.02251859 94.33057654 28.17645373 93 31 C94.65 31.33 96.3 31.66 98 32 C98 33.65 98 35.3 98 37 C95.36 37 92.72 37 90 37 C90.14042877 38.64630328 90.28749329 40.29204179 90.4375 41.9375 C90.51871094 42.85402344 90.59992188 43.77054688 90.68359375 44.71484375 C90.76044976 46.96159732 90.76044976 46.96159732 92 48 C92.09909302 50.33160055 92.12970504 52.66629942 92.125 55 C92.12886719 56.918125 92.12886719 56.918125 92.1328125 58.875 C92 62 92 62 91 63 C90.76712992 64.68183948 90.58735834 66.3712416 90.4375 68.0625 C90.31181641 69.44115234 90.31181641 69.44115234 90.18359375 70.84765625 C90.12300781 71.55792969 90.06242187 72.26820312 90 73 C90.94875 72.979375 91.8975 72.95875 92.875 72.9375 C96 73 96 73 98 74 C98.34570033 83.97409484 98.29514664 93.4168671 95 103 C94.34 103.66 93.68 104.32 93 105 C92.01 105 91.02 105 90 105 C90 106.65 90 108.3 90 110 C88.68 110 87.36 110 86 110 C86 108.35 86 106.7 86 105 C85.19175781 105.02320312 84.38351563 105.04640625 83.55078125 105.0703125 C81.94783203 105.09738281 81.94783203 105.09738281 80.3125 105.125 C79.25675781 105.14820312 78.20101562 105.17140625 77.11328125 105.1953125 C73.97748141 104.99858729 71.82354627 104.33057654 69 103 C68.67 105.31 68.34 107.62 68 110 C66.35 109.67 64.7 109.34 63 109 C63 106.03 63 103.06 63 100 C61.35369672 100.14042877 59.70795821 100.28749329 58.0625 100.4375 C56.68771484 100.55931641 56.68771484 100.55931641 55.28515625 100.68359375 C53.03840268 100.76044976 53.03840268 100.76044976 52 102 C49.66839945 102.09909302 47.33370058 102.12970504 45 102.125 C43.72125 102.12757812 42.4425 102.13015625 41.125 102.1328125 C38 102 38 102 37 101 C35.31816052 100.76712992 33.6287584 100.58735834 31.9375 100.4375 C30.55884766 100.31181641 30.55884766 100.31181641 29.15234375 100.18359375 C28.44207031 100.12300781 27.73179688 100.06242187 27 100 C27.061875 100.9075 27.12375 101.815 27.1875 102.75 C27 106 27 106 25.9375 108.375 C23.66667974 110.27955893 22.21483523 110.50228851 19.28515625 110.328125 C11.39420336 109.1950651 3.2075897 107.46518736 -4 104 C-4.703125 101.90234375 -4.703125 101.90234375 -5 100 C-5.99 100 -6.98 100 -8 100 C-8 98.68 -8 97.36 -8 96 C-7.01 96 -6.02 96 -5 96 C-5.02320313 95.19175781 -5.04640625 94.38351563 -5.0703125 93.55078125 C-5.08835937 92.48214844 -5.10640625 91.41351563 -5.125 90.3125 C-5.14820313 89.25675781 -5.17140625 88.20101562 -5.1953125 87.11328125 C-4.99858729 83.97748141 -4.33057654 81.82354627 -3 79 C-4.65 78.67 -6.3 78.34 -8 78 C-8 76.35 -8 74.7 -8 73 C-5.36 73 -2.72 73 0 73 C-0.14042877 71.35369672 -0.28749329 69.70795821 -0.4375 68.0625 C-0.51871094 67.14597656 -0.59992187 66.22945313 -0.68359375 65.28515625 C-0.76044976 63.03840268 -0.76044976 63.03840268 -2 62 C-2.09909302 59.66839945 -2.12970504 57.33370058 -2.125 55 C-2.12757813 53.72125 -2.13015625 52.4425 -2.1328125 51.125 C-2 48 -2 48 -1 47 C-0.76712992 45.31816052 -0.58735834 43.6287584 -0.4375 41.9375 C-0.35371094 41.01839844 -0.26992187 40.09929688 -0.18359375 39.15234375 C-0.12300781 38.44207031 -0.06242188 37.73179688 0 37 C-0.94875 37.020625 -1.8975 37.04125 -2.875 37.0625 C-6 37 -6 37 -8 36 C-8.34570033 26.02590516 -8.29514664 16.5831329 -5 7 C-4.34 6.34 -3.68 5.68 -3 5 C-2.01 5 -1.02 5 0 5 C0 3.35 0 1.7 0 0 Z M68 4 C68 10.6 68 17.2 68 24 C66.68 23.67 65.36 23.34 64 23 C63.67 20.36 63.34 17.72 63 15 C62.34 15 61.68 15 61 15 C60.11554055 23.17306049 61.7495923 28.63280254 65.58984375 35.859375 C67 39 67 39 68 46 C73.94 46 79.88 46 86 46 C86.0825 44.246875 86.165 42.49375 86.25 40.6875 C86.59731617 36.25533093 87.33769735 32.71454974 89.0625 28.625 C91.68564016 22.1571129 91.36140831 15.87679706 91 9 C90.01 9.33 89.02 9.66 88 10 C88 11.98 88 13.96 88 16 C87.01 15.67 86.02 15.34 85 15 C84.87625 13.865625 84.7525 12.73125 84.625 11.5625 C84.41875 10.386875 84.2125 9.21125 84 8 C83.34 7.67 82.68 7.34 82 7 C81.67 8.98 81.34 10.96 81 13 C80.01 13 79.02 13 78 13 C77.67 10.69 77.34 8.38 77 6 C76.34 6 75.68 6 75 6 C74.67 7.65 74.34 9.3 74 11 C73.01 11 72.02 11 71 11 C70.67 8.69 70.34 6.38 70 4 C69.34 4 68.68 4 68 4 Z M-1 9 C-0.67 9.99 -0.34 10.98 0 12 C1.98 12 3.96 12 6 12 C5.67 12.99 5.34 13.98 5 15 C3.865625 15.12375 2.73125 15.2475 1.5625 15.375 C-0.2009375 15.684375 -0.2009375 15.684375 -2 16 C-2.33 16.66 -2.66 17.32 -3 18 C-0.03 18.495 -0.03 18.495 3 19 C3 19.99 3 20.98 3 22 C0.69 22.33 -1.62 22.66 -4 23 C-4 23.66 -4 24.32 -4 25 C-2.35 25.33 -0.7 25.66 1 26 C1 26.99 1 27.98 1 29 C-1.31 29.33 -3.62 29.66 -6 30 C-6 30.66 -6 31.32 -6 32 C0.6 32 7.2 32 14 32 C13.67 33.32 13.34 34.64 13 36 C9.04 36.495 9.04 36.495 5 37 C5.33 37.66 5.66 38.32 6 39 C13.76383275 39.94638142 18.9697773 38.02090187 25.82421875 34.41015625 C29.25850562 32.8852146 32.27619591 32.37003839 36 32 C36.33 28.37 36.66 24.74 37 21 C37.66 21 38.32 21 39 21 C39.495 27.435 39.495 27.435 40 34 C43.3 34 46.6 34 50 34 C50 26.74 50 19.48 50 12 C46.7 12 43.4 12 40 12 C39.67 13.65 39.34 15.3 39 17 C38.34 17 37.68 17 37 17 C36.505 15.515 36.505 15.515 36 14 C35.26136719 13.97421875 34.52273437 13.9484375 33.76171875 13.921875 C28.30120167 13.61658561 23.68625927 13.07212947 18.625 10.9375 C12.1571129 8.31435984 5.87679706 8.63859169 -1 9 Z M54 14 C54 19.94 54 25.88 54 32 C55.65 32 57.3 32 59 32 C58.76990234 31.23429687 58.76990234 31.23429687 58.53515625 30.453125 C57.83094597 27.2250662 57.65111796 24.04581999 57.4375 20.75 C57.35371094 19.48671875 57.26992187 18.2234375 57.18359375 16.921875 C57.12300781 15.95765625 57.06242187 14.9934375 57 14 C56.01 14 55.02 14 54 14 Z M27 38 C26.89912788 40.50924153 26.86027968 42.99036384 26.8671875 45.5 C26.86623077 46.25087891 26.86527405 47.00175781 26.86428833 47.77539062 C26.86360662 49.36588627 26.86546028 50.95638467 26.86962891 52.546875 C26.87497733 54.98964655 26.86968366 57.43223421 26.86328125 59.875 C26.86394203 61.41666707 26.8652232 62.95833403 26.8671875 64.5 C26.86516327 65.23541016 26.86313904 65.97082031 26.86105347 66.72851562 C26.56943487 70.15246342 26.56943487 70.15246342 28 73 C30.50924153 73.10087212 32.99036384 73.13972032 35.5 73.1328125 C36.62631836 73.13424759 36.62631836 73.13424759 37.77539062 73.13571167 C39.36588627 73.13639338 40.95638467 73.13453972 42.546875 73.13037109 C44.98964655 73.12502267 47.43223421 73.13031634 49.875 73.13671875 C51.41666707 73.13605797 52.95833403 73.1347768 54.5 73.1328125 C55.23541016 73.13483673 55.97082031 73.13686096 56.72851562 73.13894653 C60.15246342 73.43056513 60.15246342 73.43056513 63 72 C63.10087212 69.49075847 63.13972032 67.00963616 63.1328125 64.5 C63.13376923 63.74912109 63.13472595 62.99824219 63.13571167 62.22460938 C63.13639338 60.63411373 63.13453972 59.04361533 63.13037109 57.453125 C63.12502267 55.01035345 63.13031634 52.56776579 63.13671875 50.125 C63.13605797 48.58333293 63.1347768 47.04166597 63.1328125 45.5 C63.13483673 44.76458984 63.13686096 44.02917969 63.13894653 43.27148438 C63.43056513 39.84753658 63.43056513 39.84753658 62 37 C59.49075847 36.89912788 57.00963616 36.86027968 54.5 36.8671875 C53.74912109 36.86623077 52.99824219 36.86527405 52.22460938 36.86428833 C50.63411373 36.86360662 49.04361533 36.86546028 47.453125 36.86962891 C45.01035345 36.87497733 42.56776579 36.86968366 40.125 36.86328125 C38.58333293 36.86394203 37.04166597 36.8652232 35.5 36.8671875 C34.76458984 36.86516327 34.02917969 36.86313904 33.27148438 36.86105347 C29.84753658 36.56943487 29.84753658 36.56943487 27 38 Z M18 42 C15.60745424 42.22560676 13.21071877 42.40848595 10.8125 42.5625 C8.90404297 42.68818359 8.90404297 42.68818359 6.95703125 42.81640625 C5.98121094 42.87699219 5.00539063 42.93757813 4 43 C4 43.99 4 44.98 4 46 C9.94 46 15.88 46 22 46 C22 44.35 22 42.7 22 41 C20.63106761 40.94729537 20.63106761 40.94729537 18 42 Z M2 50 C2 53.3 2 56.6 2 60 C9.26 60 16.52 60 24 60 C24 56.7 24 53.4 24 50 C16.74 50 9.48 50 2 50 Z M66 50 C66 53.3 66 56.6 66 60 C73.26 60 80.52 60 88 60 C88 56.7 88 53.4 88 50 C80.74 50 73.48 50 66 50 Z M4 64 C3.9175 65.753125 3.835 67.50625 3.75 69.3125 C3.40268383 73.74466907 2.66230265 77.28545026 0.9375 81.375 C-1.68564016 87.8428871 -1.36140831 94.12320294 -1 101 C0.485 100.505 0.485 100.505 2 100 C2 98.02 2 96.04 2 94 C2.99 94.33 3.98 94.66 5 95 C5.12375 96.134375 5.2475 97.26875 5.375 98.4375 C5.58125 99.613125 5.7875 100.78875 6 102 C6.66 102.33 7.32 102.66 8 103 C8.495 100.03 8.495 100.03 9 97 C9.99 97 10.98 97 12 97 C12.33 99.31 12.66 101.62 13 104 C13.66 104 14.32 104 15 104 C15.33 102.35 15.66 100.7 16 99 C16.99 99 17.98 99 19 99 C19.33 101.31 19.66 103.62 20 106 C20.66 106 21.32 106 22 106 C22 99.4 22 92.8 22 86 C23.32 86.33 24.64 86.66 26 87 C26.33 89.64 26.66 92.28 27 95 C27.66 95 28.32 95 29 95 C29.88445945 86.82693951 28.2504077 81.36719746 24.41015625 74.140625 C23 71 23 71 22 64 C16.06 64 10.12 64 4 64 Z M68 64 C68 65.65 68 67.3 68 69 C68.76570313 68.76990234 68.76570313 68.76990234 69.546875 68.53515625 C72.7749338 67.83094597 75.95418001 67.65111796 79.25 67.4375 C80.51328125 67.35371094 81.7765625 67.26992187 83.078125 67.18359375 C84.04234375 67.12300781 85.0065625 67.06242187 86 67 C86 66.01 86 65.02 86 64 C80.06 64 74.12 64 68 64 Z M64.140625 75.58984375 C60.7202958 77.12558858 57.71521303 77.63127911 54 78 C53.67 81.63 53.34 85.26 53 89 C52.34 89 51.68 89 51 89 C50.67 84.71 50.34 80.42 50 76 C46.7 76 43.4 76 40 76 C40 83.26 40 90.52 40 98 C43.3 98 46.6 98 50 98 C50.33 96.35 50.66 94.7 51 93 C51.99 93 52.98 93 54 93 C54 93.99 54 94.98 54 96 C55.10794922 96.03867188 55.10794922 96.03867188 56.23828125 96.078125 C61.69879833 96.38341439 66.31374073 96.92787053 71.375 99.0625 C77.8428871 101.68564016 84.12320294 101.36140831 91 101 C90.505 99.515 90.505 99.515 90 98 C88.35 97.67 86.7 97.34 85 97 C85 96.34 85 95.68 85 95 C86.134375 94.87625 87.26875 94.7525 88.4375 94.625 C89.613125 94.41875 90.78875 94.2125 92 94 C92.33 93.34 92.66 92.68 93 92 C91.02 91.67 89.04 91.34 87 91 C87 90.01 87 89.02 87 88 C89.31 87.67 91.62 87.34 94 87 C94 86.34 94 85.68 94 85 C91.525 84.505 91.525 84.505 89 84 C89 83.01 89 82.02 89 81 C92.465 80.505 92.465 80.505 96 80 C96 79.34 96 78.68 96 78 C89.4 78 82.8 78 76 78 C76.33 76.68 76.66 75.36 77 74 C79.64 73.67 82.28 73.34 85 73 C85 72.34 85 71.68 85 71 C76.82693951 70.11554055 71.36719746 71.7495923 64.140625 75.58984375 Z M31 78 C31.15339844 78.51046875 31.30679688 79.0209375 31.46484375 79.546875 C32.16905403 82.7749338 32.34888204 85.95418001 32.5625 89.25 C32.64628906 90.51328125 32.73007812 91.7765625 32.81640625 93.078125 C32.87699219 94.04234375 32.93757813 95.0065625 33 96 C33.99 96 34.98 96 36 96 C36 90.06 36 84.12 36 78 C34.35 78 32.7 78 31 78 Z " fill="#98CD4D" transform="translate(8,0)"/>
</svg>
