<?xml version="1.0" encoding="UTF-8"?>
<svg version="1.1" xmlns="http://www.w3.org/2000/svg" width="112" height="112">
<path d="M0 0 C1.59038086 -0.00290039 1.59038086 -0.00290039 3.21289062 -0.00585938 C11.50249999 0.16227652 17.45791409 1.55780512 24.25 6.5625 C24.25 7.2225 24.25 7.8825 24.25 8.5625 C24.91 8.5625 25.57 8.5625 26.25 8.5625 C27.72265625 10.609375 27.72265625 10.609375 29.3125 13.3125 C29.83972656 14.19421875 30.36695312 15.0759375 30.91015625 15.984375 C32.74508438 19.5151405 33.35540217 22.6142519 33.49609375 26.56640625 C33.52896484 27.30697266 33.56183594 28.04753906 33.59570312 28.81054688 C33.65704981 30.35726637 33.71432222 31.90415267 33.76757812 33.45117188 C33.94457235 37.28159412 34.07976394 39.3071459 36.25 42.5625 C36.4453125 45.26171875 36.4453125 45.26171875 36.375 48.25 C36.35695313 49.24386719 36.33890625 50.23773438 36.3203125 51.26171875 C36.29710938 52.02097656 36.27390625 52.78023437 36.25 53.5625 C34.765 54.0575 34.765 54.0575 33.25 54.5625 C33.1689653 55.19477005 33.0879306 55.8270401 33.00444031 56.47846985 C32.15964368 63.05013098 31.29707246 69.61928315 30.42407227 76.18725586 C30.10047865 78.63978049 29.78144475 81.09291119 29.46704102 83.54663086 C29.01471029 87.07053656 28.54610402 90.59194768 28.07421875 94.11328125 C27.93658615 95.21336014 27.79895355 96.31343903 27.65715027 97.44685364 C27.5172316 98.46768539 27.37731293 99.48851715 27.2331543 100.5402832 C27.11546188 101.43963089 26.99776947 102.33897858 26.87651062 103.26557922 C26.14369322 105.95224319 25.3996223 106.8306693 23.25 108.5625 C21.37155819 108.93723011 21.37155819 108.93723011 19.22019958 108.9367218 C18.40279297 108.94373611 17.58538635 108.95075043 16.74320984 108.95797729 C15.40356926 108.94651169 15.40356926 108.94651169 14.03686523 108.93481445 C13.0935434 108.93846512 12.15022156 108.94211578 11.17831421 108.94587708 C8.05489191 108.95399451 4.93198641 108.9403634 1.80859375 108.92578125 C-0.35709126 108.92526283 -2.52277676 108.92577982 -4.6884613 108.92729187 C-9.22882098 108.9272021 -13.76900328 108.91676112 -18.30932617 108.89868164 C-24.13945484 108.87598087 -29.9693245 108.87545228 -35.79948521 108.88219929 C-40.27148251 108.8855348 -44.74342037 108.87891729 -49.21540642 108.86907005 C-51.36567817 108.86521156 -53.51595652 108.86407251 -55.66623116 108.8656559 C-58.66636974 108.86602526 -61.66617158 108.85344298 -64.66625977 108.8371582 C-66.00893669 108.84087433 -66.00893669 108.84087433 -67.3787384 108.84466553 C-73.52125859 108.79124141 -73.52125859 108.79124141 -75.75 106.5625 C-75.97705078 104.59130859 -75.97705078 104.59130859 -75.9453125 102.2109375 C-75.93886719 101.36015625 -75.93242188 100.509375 -75.92578125 99.6328125 C-75.90902344 98.74335937 -75.89226562 97.85390625 -75.875 96.9375 C-75.86597656 96.0403125 -75.85695313 95.143125 -75.84765625 94.21875 C-75.8240497 91.99973414 -75.7911231 89.78124923 -75.75 87.5625 C-74.76 87.0675 -74.76 87.0675 -73.75 86.5625 C-73.09 86.8925 -72.43 87.2225 -71.75 87.5625 C-71.75 93.1725 -71.75 98.7825 -71.75 104.5625 C-64.49 104.5625 -57.23 104.5625 -49.75 104.5625 C-49.42 102.2525 -49.09 99.9425 -48.75 97.5625 C-47.74791504 96.14300049 -47.74791504 96.14300049 -46.72558594 94.69482422 C-44.08975279 90.51566712 -44.14786055 87.28678605 -44.140625 82.4453125 C-44.12408875 81.58815643 -44.10755249 80.73100037 -44.09051514 79.84786987 C-44.04218337 77.12767262 -44.02069762 74.40803379 -44 71.6875 C-43.97182785 69.83590963 -43.94189868 67.9843451 -43.91015625 66.1328125 C-43.83642862 61.60942101 -43.7867637 57.08633681 -43.75 52.5625 C-45.07 52.5625 -46.39 52.5625 -47.75 52.5625 C-47.770625 53.160625 -47.79125 53.75875 -47.8125 54.375 C-48.75 56.5625 -48.75 56.5625 -51.8125 58.375 C-56.81057976 60.26727711 -61.34235293 59.58575001 -66.25 57.5 C-66.745 57.190625 -67.24 56.88125 -67.75 56.5625 C-70.46584637 59.66090448 -71.14265329 61.66977308 -71.26171875 65.765625 C-71.31489258 67.23515625 -71.31489258 67.23515625 -71.36914062 68.734375 C-71.39169922 69.75015625 -71.41425781 70.7659375 -71.4375 71.8125 C-71.47166016 72.84375 -71.50582031 73.875 -71.54101562 74.9375 C-71.62338093 77.47905812 -71.69256834 80.02027626 -71.75 82.5625 C-73.73 83.0575 -73.73 83.0575 -75.75 83.5625 C-75.87719457 77.2822034 -75.9645156 71.00224119 -76.0246582 64.72094727 C-76.04974031 62.58605537 -76.08381445 60.45124882 -76.12719727 58.31665039 C-76.18812582 55.24083353 -76.21627324 52.1661558 -76.23828125 49.08984375 C-76.26408768 48.14165268 -76.2898941 47.19346161 -76.31648254 46.21653748 C-76.31921873 39.69293192 -75.14774089 36.43674738 -70.75 31.5625 C-67.9375 30.125 -67.9375 30.125 -65.75 29.5625 C-65.77320312 28.87542969 -65.79640625 28.18835938 -65.8203125 27.48046875 C-65.83835937 26.57941406 -65.85640625 25.67835937 -65.875 24.75 C-65.89820312 23.85667969 -65.92140625 22.96335937 -65.9453125 22.04296875 C-65.75 19.5625 -65.75 19.5625 -63.75 16.5625 C-61.21875 16.234375 -61.21875 16.234375 -58.25 16.3125 C-56.78046875 16.33570313 -56.78046875 16.33570313 -55.28125 16.359375 C-52.75 16.5625 -52.75 16.5625 -50.75 17.5625 C-50.22090273 20.59237325 -49.91876463 23.62044538 -49.60546875 26.6796875 C-48.49023872 30.43785993 -47.0615112 30.63843948 -43.75 32.5625 C-39.32968854 38.54102539 -39.21107179 43.46342974 -39.359375 50.74609375 C-39.36503479 51.80159927 -39.37069458 52.8571048 -39.37652588 53.94459534 C-39.39881405 57.29686939 -39.44899785 60.64805212 -39.5 64 C-39.5200747 66.28058346 -39.53832377 68.56118377 -39.5546875 70.84179688 C-39.59865394 76.41573333 -39.66549046 81.98903867 -39.75 87.5625 C-38.14125 87.0675 -38.14125 87.0675 -36.5 86.5625 C-32.75 85.5625 -32.75 85.5625 -28.75 85.5625 C-28.87117188 84.76553711 -28.99234375 83.96857422 -29.1171875 83.14746094 C-29.66449856 79.53626045 -30.20729887 75.92439603 -30.75 72.3125 C-30.94078125 71.05824219 -31.1315625 69.80398437 -31.328125 68.51171875 C-31.50859375 67.30644531 -31.6890625 66.10117188 -31.875 64.859375 C-32.12636719 63.19406738 -32.12636719 63.19406738 -32.3828125 61.49511719 C-32.75 58.5625 -32.75 58.5625 -32.75 54.5625 C-34.07 53.9025 -35.39 53.2425 -36.75 52.5625 C-36.83131463 51.12594146 -36.88933559 49.6880517 -36.9375 48.25 C-36.98970703 47.04923828 -36.98970703 47.04923828 -37.04296875 45.82421875 C-36.75 43.5625 -36.75 43.5625 -35.25268555 42.19091797 C-33.32304609 40.09982208 -33.39318889 39.05359409 -33.4140625 36.24609375 C-33.4049585 35.40393311 -33.39585449 34.56177246 -33.38647461 33.6940918 C-33.38268799 32.8050415 -33.37890137 31.91599121 -33.375 31 C-33.07755367 20.78039899 -31.52928916 13.88801089 -23.9375 6.625 C-16.9010922 0.51877831 -8.90533609 -0.01672887 0 0 Z M-16.75 7.5625 C-14.6167597 8.91271774 -14.6167597 8.91271774 -11.58984375 7.63671875 C-3.05331789 5.24857571 6.55278846 6.1425471 15.25 7.5625 C11.27718622 3.58968622 5.80096297 4.34714682 0.5 4.3125 C-0.2734375 4.291875 -1.046875 4.27125 -1.84375 4.25 C-7.47138278 4.21223065 -11.58608867 5.32244714 -16.75 7.5625 Z M17.25 8.5625 C19.23 10.8725 21.21 13.1825 23.25 15.5625 C23.57539569 12.46194369 23.57539569 12.46194369 21.375 10.375 C19.46188666 8.34618446 19.46188666 8.34618446 17.25 8.5625 Z M-21.75 10.5625 C-21.75 11.5525 -21.75 12.5425 -21.75 13.5625 C-21.09 12.5725 -20.43 11.5825 -19.75 10.5625 C-20.41 10.5625 -21.07 10.5625 -21.75 10.5625 Z M-19.0625 17.125 C-19.55363281 17.72441406 -20.04476562 18.32382812 -20.55078125 18.94140625 C-22.68748309 21.82978171 -22.86306801 23.64773902 -22.8125 27.1875 C-22.80347656 28.00476563 -22.79445312 28.82203125 -22.78515625 29.6640625 C-22.77355469 30.29054688 -22.76195312 30.91703125 -22.75 31.5625 C-21.1721875 31.43875 -21.1721875 31.43875 -19.5625 31.3125 C-15.18112175 31.59980349 -13.80154419 32.51095581 -10.75 35.5625 C-10.42 36.2225 -10.09 36.8825 -9.75 37.5625 C-7.25638429 36.35868552 -5.06856917 35.10821278 -2.75 33.5625 C-0.42612053 33.16862212 1.90793749 32.82763915 4.25 32.5625 C4.25 31.9025 4.25 31.2425 4.25 30.5625 C8.37515873 28.56242304 11.6840708 28.14741553 16.25 28.5625 C18.5 30.0625 18.5 30.0625 20.25 31.5625 C21.24 31.5625 22.23 31.5625 23.25 31.5625 C22.9996573 25.22882969 22.67967026 20.44649542 18.25 15.5625 C12.42193784 10.78235567 7.53300666 9.81815795 0.125 10.0625 C-0.74253906 10.05992188 -1.61007813 10.05734375 -2.50390625 10.0546875 C-9.41868044 10.1599352 -14.57221007 11.521215 -19.0625 17.125 Z M-24.75 14.5625 C-27.67283811 18.94675716 -28.88733173 22.43471121 -28.84765625 27.671875 C-28.84443359 28.42597656 -28.84121094 29.18007813 -28.83789062 29.95703125 C-28.82951172 30.73433594 -28.82113281 31.51164062 -28.8125 32.3125 C-28.80798828 33.10527344 -28.80347656 33.89804687 -28.79882812 34.71484375 C-28.78708565 36.66409508 -28.76915146 38.61330738 -28.75 40.5625 C-28.42 40.5625 -28.09 40.5625 -27.75 40.5625 C-27.71261719 39.60730469 -27.67523438 38.65210937 -27.63671875 37.66796875 C-27.22557754 29.58219164 -26.30985512 22.30646422 -23.75 14.5625 C-24.08 14.5625 -24.41 14.5625 -24.75 14.5625 Z M24.25 15.5625 C24.58 16.5525 24.91 17.5425 25.25 18.5625 C25.25 17.5725 25.25 16.5825 25.25 15.5625 C24.92 15.5625 24.59 15.5625 24.25 15.5625 Z M26.25 18.5625 C26.58 23.1825 26.91 27.8025 27.25 32.5625 C27.91 32.5625 28.57 32.5625 29.25 32.5625 C29.46192221 27.37040596 28.8412689 23.435761 27.25 18.5625 C26.92 18.5625 26.59 18.5625 26.25 18.5625 Z M-61.75 21.5625 C-61.79092937 23.89547433 -61.79241723 26.22955225 -61.75 28.5625 C-59.44 28.5625 -57.13 28.5625 -54.75 28.5625 C-54.75 25.9225 -54.75 23.2825 -54.75 20.5625 C-58.55621045 20.12402641 -58.55621045 20.12402641 -61.75 21.5625 Z M11.25 31.5625 C10.5075 32.3875 9.765 33.2125 9 34.0625 C6.25 36.5625 6.25 36.5625 2.4375 36.875 C1.385625 36.771875 0.33375 36.66875 -0.75 36.5625 C1.11502588 39.19049102 2.55410791 40.42615751 5.7421875 41.05078125 C8.2464272 41.28843573 10.73653979 41.4665664 13.25 41.5625 C13.58 42.8825 13.91 44.2025 14.25 45.5625 C10.95 45.5625 7.65 45.5625 4.25 45.5625 C4.25 47.2125 4.25 48.8625 4.25 50.5625 C13.49 50.5625 22.73 50.5625 32.25 50.5625 C32.25 48.9125 32.25 47.2625 32.25 45.5625 C27.96 45.2325 23.67 44.9025 19.25 44.5625 C19.25 43.5725 19.25 42.5825 19.25 41.5625 C22.55 41.2325 25.85 40.9025 29.25 40.5625 C27.7925166 36.55507843 27.7925166 36.55507843 25.4375 35.8125 C23.20079422 35.48761138 23.20079422 35.48761138 20.75 35.75 C17.37695918 35.49702194 16.50237267 33.96503084 14.25 31.5625 C13.26 31.5625 12.27 31.5625 11.25 31.5625 Z M-69.5625 36.9375 C-73.13948633 41.40873291 -72.14323977 47.16200719 -71.75 52.5625 C-70.76 52.2325 -69.77 51.9025 -68.75 51.5625 C-68.07060826 49.56678677 -67.40438441 47.56655227 -66.75 45.5625 C-63.17102749 43.17651833 -61.03409945 42.77670497 -56.75 42.5625 C-52.65001015 43.62668248 -50.15479099 44.95531352 -47.75 48.5625 C-46.43 48.5625 -45.11 48.5625 -43.75 48.5625 C-43.42235697 44.46696218 -43.51930331 42.02389337 -45.375 38.3125 C-48.40834866 34.80020155 -51.04570689 32.89721604 -55.73828125 32.31640625 C-61.71200726 32.12515702 -65.05401401 33.13033406 -69.5625 36.9375 Z M-21.75 35.5625 C-22.08 37.2125 -22.41 38.8625 -22.75 40.5625 C-20.11 39.5725 -17.47 38.5825 -14.75 37.5625 C-15.08 36.9025 -15.41 36.2425 -15.75 35.5625 C-17.73 35.5625 -19.71 35.5625 -21.75 35.5625 Z M-17.75 42.5625 C-17.75 49.4925 -17.75 56.4225 -17.75 63.5625 C-12.14 63.5625 -6.53 63.5625 -0.75 63.5625 C-0.75 56.6325 -0.75 49.7025 -0.75 42.5625 C-6.36 42.5625 -11.97 42.5625 -17.75 42.5625 Z M-32.75 45.5625 C-32.75 47.2125 -32.75 48.8625 -32.75 50.5625 C-29.12 50.5625 -25.49 50.5625 -21.75 50.5625 C-21.75 48.9125 -21.75 47.2625 -21.75 45.5625 C-25.38 45.5625 -29.01 45.5625 -32.75 45.5625 Z M-64.75 49.5625 C-63.52992056 52.2530528 -63.52992056 52.2530528 -61.75 54.5625 C-56.42326964 54.90106828 -56.42326964 54.90106828 -51.75 52.5625 C-52.09444881 50.08983235 -52.09444881 50.08983235 -52.75 47.5625 C-57.32258855 45.27620572 -61.11090867 46.20333877 -64.75 49.5625 Z M-28.75 54.5625 C-28.20234679 58.63812074 -27.65089971 62.71320835 -27.09594727 66.7878418 C-26.907731 68.17376842 -26.7205481 69.5598358 -26.53442383 70.94604492 C-26.26656101 72.93965858 -25.99466097 74.93272848 -25.72265625 76.92578125 C-25.56031494 78.12501221 -25.39797363 79.32424316 -25.23071289 80.55981445 C-24.65312091 84.74844338 -24.65312091 84.74844338 -22.1484375 87.94921875 C-17.35926234 91.02797421 -14.53945604 91.77302567 -8.75 91.5625 C-6.28411227 92.36404115 -4.09777204 93.43376344 -1.75 94.5625 C-0.265 95.0575 -0.265 95.0575 1.25 95.5625 C2.58859334 98.4765571 3.33761099 101.4777562 4.25 104.5625 C9.86 104.5625 15.47 104.5625 21.25 104.5625 C23.11290501 95.97920871 24.3444024 87.34292248 25.53710938 78.64697266 C25.87718709 76.1715804 26.22344986 73.69710591 26.5703125 71.22265625 C26.78942919 69.64067575 27.00819202 68.05864618 27.2265625 66.4765625 C27.32965729 65.74112213 27.43275208 65.00568176 27.53897095 64.24795532 C27.98512362 60.96943607 28.25 57.88051026 28.25 54.5625 C20.33 54.5625 12.41 54.5625 4.25 54.5625 C3.92 62.8125 3.59 71.0625 3.25 79.5625 C-1.04 79.5625 -5.33 79.5625 -9.75 79.5625 C-9.75 78.2425 -9.75 76.9225 -9.75 75.5625 C-6.78 75.5625 -3.81 75.5625 -0.75 75.5625 C-0.75 72.9225 -0.75 70.2825 -0.75 67.5625 C-6.36 67.5625 -11.97 67.5625 -17.75 67.5625 C-17.75 70.2025 -17.75 72.8425 -17.75 75.5625 C-16.43 75.8925 -15.11 76.2225 -13.75 76.5625 C-13.75 77.2225 -13.75 77.8825 -13.75 78.5625 C-17.71 79.0575 -17.71 79.0575 -21.75 79.5625 C-21.75 71.3125 -21.75 63.0625 -21.75 54.5625 C-24.06 54.5625 -26.37 54.5625 -28.75 54.5625 Z M-43.0625 97 C-45.11711373 99.77081686 -45.11711373 99.77081686 -45.75 104.5625 C-30.57 104.5625 -15.39 104.5625 0.25 104.5625 C-2.25203825 98.75111937 -2.25203825 98.75111937 -6.75 95.5625 C-13.25447524 94.81608481 -16.31089528 96.08147298 -21.75 99.5625 C-22.41 99.5625 -23.07 99.5625 -23.75 99.5625 C-23.275625 98.77875 -22.80125 97.995 -22.3125 97.1875 C-21.41101977 95.67301322 -20.53820515 94.1389103 -19.75 92.5625 C-28.49537867 87.89829804 -36.52267821 90.10667433 -43.0625 97 Z " fill="#98CD4D" transform="translate(75.75,1.4375)"/>
<path d="M0 0 C2 1.0625 2 1.0625 3 3 C3.50030235 6.93094707 3.5996142 9.1005787 1.375 12.4375 C-1.71685231 14.47161336 -3.36367425 14.60605429 -7 14 C-9.375 12.4375 -9.375 12.4375 -11 10 C-11.42213381 6.56262469 -11.60856522 4.17909511 -10 1.0625 C-6.75978228 -0.65886567 -3.58042244 -0.52960415 0 0 Z M-6 4 C-6.33 5.32 -6.66 6.64 -7 8 C-5.02 8.99 -5.02 8.99 -3 10 C-1.89163577 8.11683841 -1.89163577 8.11683841 -1 6 C-1.33 5.34 -1.66 4.68 -2 4 C-3.32 4 -4.64 4 -6 4 Z " fill="#98CD4D" transform="translate(77,16)"/>
<path d="M0 0 C5.28 0 10.56 0 16 0 C16.33 0.99 16.66 1.98 17 3 C16 4 16 4 12.18359375 4.09765625 C10.60153318 4.09098089 9.01948841 4.07901875 7.4375 4.0625 C6.63119141 4.05798828 5.82488281 4.05347656 4.99414062 4.04882812 C2.99606244 4.03700518 0.99802217 4.01906914 -1 4 C-0.67 2.68 -0.34 1.36 0 0 Z " fill="#98CD4D" transform="translate(10,62)"/>
</svg>
