<?xml version="1.0" encoding="UTF-8"?>
<svg version="1.1" xmlns="http://www.w3.org/2000/svg" width="112" height="112">
<path d="M0 0 C2.07678495 0.92569872 4.0085022 2.00479397 5.98828125 3.12109375 C8.25034404 4.10937361 9.73852521 4.17736749 12.1875 4.0625 C16.49768533 3.99184122 17.7786678 4.2025273 21 7 C22.54377847 9.27125764 23.99465061 11.59117585 25.453125 13.91796875 C27.51927729 16.69892626 29.85081679 17.67034487 33 19 C36.04471616 22.16015564 36.34348824 24.50454925 36.4375 28.8125 C36.65404459 32.77767209 36.91210488 35.48938105 39.125 38.8125 C41 42 41 42 40.9375 45.625 C40 49 40 49 38.5 51.25 C36.49420103 54.92729811 36.49805209 58.23952853 36.30859375 62.37890625 C35.98734467 65.10749024 35.51024808 66.71729716 34 69 C31.35224736 71.02328268 28.39952923 73 25 73 C24.76571687 77.7897321 24.76571687 77.7897321 27 82 C27.125 84.6875 27.125 84.6875 27 87 C23.73045798 86.43628586 22.17424117 85.50037734 20 83 C19.01 83.495 19.01 83.495 18 84 C14.88638233 84.27511629 11.77312062 84.44668648 8.65234375 84.62109375 C7.77707031 84.74613281 6.90179688 84.87117188 6 85 C5.67 85.66 5.34 86.32 5 87 C5.80620533 89.07642077 5.80620533 89.07642077 7.08984375 91.3515625 C7.54423828 92.20234375 7.99863281 93.053125 8.46679688 93.9296875 C8.95212891 94.81914063 9.43746094 95.70859375 9.9375 96.625 C10.41896484 97.5221875 10.90042969 98.419375 11.39648438 99.34375 C12.59058716 101.56643636 13.79199381 103.78484826 15 106 C15.78375 105.030625 16.5675 104.06125 17.375 103.0625 C18.91288705 101.16037654 19.79259913 100.10370043 22 99 C24.6723621 98.86584528 27.32250488 98.95681459 30 99 C29.505 98.0925 29.01 97.185 28.5 96.25 C27 93 27 93 27 89 C29.76742219 89.3496315 30.76014381 89.69601773 32.51953125 91.92578125 C32.94621094 92.71339844 33.37289062 93.50101562 33.8125 94.3125 C34.25207031 95.09238281 34.69164063 95.87226562 35.14453125 96.67578125 C36.10863264 99.29514348 35.9599526 100.42638476 35 103 C34.19175781 103.06316406 33.38351563 103.12632813 32.55078125 103.19140625 C26.38032321 103.66424568 26.38032321 103.66424568 21.265625 106.69140625 C20.1680578 108.45535354 19.08333217 110.22727464 18 112 C15.5 112.9375 15.5 112.9375 13 112 C11.04178433 109.3537626 9.55896026 106.88095856 8 104 C6.95536972 102.15595538 5.90159309 100.31732325 4.84692383 98.47900391 C4.11997131 97.2088999 3.39709502 95.93645349 2.6784668 94.66162109 C1.09088971 91.65017419 1.09088971 91.65017419 -1 89 C-3.8275989 88.24755499 -3.8275989 88.24755499 -7 89 C-9.02444563 91.66374425 -10.44857851 94.06247242 -12 97 C-13.04095105 98.84579407 -14.0951155 100.68363858 -15.15087891 102.52099609 C-15.87912752 103.79082098 -16.60282737 105.06326627 -17.32177734 106.33837891 C-19.89271079 110.89271079 -19.89271079 110.89271079 -21 112 C-23.25 112.5 -23.25 112.5 -26 112 C-27.11625279 110.22712792 -28.23172984 108.4537518 -29.33984375 106.67578125 C-32.17730965 103.81160979 -35.69821766 103.89148195 -39.57421875 103.58203125 C-42 103 -42 103 -43.3034668 101.28881836 C-44 99 -44 99 -43.12548828 96.52636719 C-42.61228027 95.62563477 -42.09907227 94.72490234 -41.5703125 93.796875 C-40.74853516 92.32734375 -40.74853516 92.32734375 -39.91015625 90.828125 C-39.32105469 89.81234375 -38.73195313 88.7965625 -38.125 87.75 C-37.54363281 86.71875 -36.96226563 85.6875 -36.36328125 84.625 C-34.92293573 82.07488007 -33.46822972 79.5341354 -32 77 C-35.18288538 73.72647969 -38.08826789 71.32589477 -42 69 C-44.25624638 65.61563043 -44.24386981 64.22425356 -44.375 60.25 C-44.62233581 56.29262703 -44.89289002 53.55229969 -47.125 50.25 C-49.69352636 45.79788763 -49.21357819 43.93521798 -48 39 C-47.24203125 38.07574219 -47.24203125 38.07574219 -46.46875 37.1328125 C-44.5532627 34.35128041 -44.63429238 32.41140352 -44.5625 29.0625 C-44.32297697 25.34311409 -44.16704719 23.30839482 -42.375 20 C-39.9873486 17.98934619 -37.54842855 16.72149635 -34.78125 15.30859375 C-32.49404843 13.62830312 -31.52246556 11.76971028 -30.125 9.3125 C-27.61767776 5.20960906 -27.61767776 5.20960906 -24.8359375 4.265625 C-22.5 4.0625 -22.5 4.0625 -20.17578125 4.03125 C-16.4956146 3.97839303 -13.25703064 2.75421838 -10.125 0.875 C-6.76561707 -0.50827533 -3.53547644 -0.55483754 0 0 Z M-9.0625 5.9375 C-12.32150446 7.9690872 -14.86945478 8.27459674 -18.6875 8.4375 C-23.08103261 8.63680114 -23.08103261 8.63680114 -26.5625 11.3125 C-27.97683049 13.8435623 -27.97683049 13.8435623 -28.8046875 15.98046875 C-30.72992638 19.23324162 -33.81098834 20.55750993 -37.00390625 22.4375 C-39.11440362 23.81798048 -39.11440362 23.81798048 -39.75390625 25.91015625 C-40.01004093 28.0852682 -40.21599462 30.25306901 -40.375 32.4375 C-40.76675487 36.36147088 -41.86786801 38.66274992 -44 42 C-44.79602059 46.32125465 -43.13555872 48.49639738 -40.87890625 52.10546875 C-39.86138838 54.29878505 -39.82453183 55.72555597 -39.9375 58.125 C-40.00544691 62.33770846 -39.71038934 63.8378791 -37 67 C-36.0925 67.391875 -35.185 67.78375 -34.25 68.1875 C-30.59303737 70.22695993 -29.93238234 71.58730598 -27.875 75.125 C-25.33969547 79.05477516 -25.33969547 79.05477516 -21.1328125 80.734375 C-19.04598215 80.82804818 -16.95607859 80.86849176 -14.8671875 80.85546875 C-11.84924872 81.00759918 -10.57808082 81.51395375 -8.125 83.1875 C-5.11411979 85.39044816 -5.11411979 85.39044816 -1.75 84.375 C1.11111445 83.01550434 1.11111445 83.01550434 4 81 C5.9161425 80.95517795 7.83372831 80.96109093 9.75 81 C14.46289975 80.71540416 14.46289975 80.71540416 18.0625 77.890625 C19.19332492 76.12109341 20.28457722 74.32568175 21.3359375 72.5078125 C23.51181289 69.22867635 25.92035665 67.83828071 29.3984375 66.1328125 C31.15413488 65.11476422 31.15413488 65.11476422 31.703125 63.14453125 C32.00691494 60.95004862 32.21417144 58.77197811 32.375 56.5625 C32.67950681 53.45145543 32.94177307 52.09405889 34.625 49.375 C36.62557685 45.91945817 35.9349196 43.80645836 35 40 C34.484375 39.030625 33.96875 38.06125 33.4375 37.0625 C32.00327548 34.0069782 31.90425409 33.12340037 32.125 29.9375 C32.38425888 25.924731 32.38425888 25.924731 29.8125 23.1875 C27.15431816 20.98711825 27.15431816 20.98711825 24.5 19.6875 C21.31114765 17.53502466 19.92031678 15.03320558 18.015625 11.7421875 C17.11895288 10.03403189 17.11895288 10.03403189 16 9 C14.29365736 8.86715325 12.58456374 8.76901871 10.875 8.6875 C5.46663803 8.2666158 2.5249054 6.86269526 -2 4 C-6.04060115 3.64357219 -6.04060115 3.64357219 -9.0625 5.9375 Z M-29 81 C-30.50519387 83.62214328 -32.00431319 86.24744208 -33.5 88.875 C-33.92925781 89.62136719 -34.35851562 90.36773437 -34.80078125 91.13671875 C-35.20683594 91.85214844 -35.61289062 92.56757812 -36.03125 93.3046875 C-36.40830078 93.96452637 -36.78535156 94.62436523 -37.17382812 95.30419922 C-38.1459916 96.98527146 -38.1459916 96.98527146 -38 99 C-37.32453125 99.07476562 -36.6490625 99.14953125 -35.953125 99.2265625 C-28.75396637 100.28771016 -28.75396637 100.28771016 -26.4453125 102.46875 C-25.375 104.125 -25.375 104.125 -24 107 C-21.69407737 104.87225288 -20.20174065 102.82790923 -18.73828125 100.05859375 C-18.34189453 99.31029297 -17.94550781 98.56199219 -17.53710938 97.79101562 C-16.93092773 96.62602539 -16.93092773 96.62602539 -16.3125 95.4375 C-15.68891602 94.26670898 -15.68891602 94.26670898 -15.05273438 93.07226562 C-12.81421335 89.23249955 -12.81421335 89.23249955 -12 85 C-15.8619283 83.06903585 -20.65166543 83.58210327 -24.91015625 83.37890625 C-26.43962891 83.19134766 -26.43962891 83.19134766 -28 83 C-28.33 82.34 -28.66 81.68 -29 81 Z " fill="#98CD4D" transform="translate(60,0)"/>
<path d="M0 0 C8.81420993 6.20812526 14.15681477 13.59175312 16.421875 24.22265625 C17.78155541 34.17801743 15.39407774 43.37627081 9.5859375 51.5390625 C8.26171875 53.2109375 8.26171875 53.2109375 5.88671875 55.7109375 C5.22671875 55.7109375 4.56671875 55.7109375 3.88671875 55.7109375 C3.88671875 56.3709375 3.88671875 57.0309375 3.88671875 57.7109375 C1.994794 58.69763509 0.09799897 59.6749977 -1.80078125 60.6484375 C-3.38439453 61.46634766 -3.38439453 61.46634766 -5 62.30078125 C-13.13544067 65.98571736 -22.22894175 65.63764032 -30.59765625 62.80859375 C-40.57089069 58.45691847 -46.77326938 51.65719212 -50.92578125 41.7109375 C-54.43203557 31.15043341 -52.84915797 21.61322519 -48.11328125 11.7109375 C-46.79328125 11.7109375 -45.47328125 11.7109375 -44.11328125 11.7109375 C-44.54904494 14.76128336 -45.01611473 17.47087905 -46.17578125 20.3359375 C-48.35929785 28.19659728 -47.83429359 35.97727197 -44.4375 43.390625 C-39.76273289 51.58180985 -33.92146971 55.77487468 -25.11328125 58.7109375 C-15.8600538 59.49605983 -7.81522232 59.46638801 -0.11328125 53.7109375 C6.33192265 48.09937967 10.18804301 41.22111218 11.265625 32.72265625 C11.54046677 25.74522167 10.14562471 20.80583797 6.88671875 14.7109375 C6.20837288 13.04899012 5.534723 11.38494847 4.88671875 9.7109375 C4.22671875 9.7109375 3.56671875 9.7109375 2.88671875 9.7109375 C2.88671875 9.0509375 2.88671875 8.3909375 2.88671875 7.7109375 C0.0814703 6.28918658 -2.74568324 4.93983866 -5.61328125 3.6484375 C-6.36609375 3.30683594 -7.11890625 2.96523438 -7.89453125 2.61328125 C-17.06861093 -1.11772651 -24.319481 1.10929136 -33.11328125 4.7109375 C-34.77994792 5.37760417 -36.44661458 6.04427083 -38.11328125 6.7109375 C-38.11328125 7.3709375 -38.11328125 8.0309375 -38.11328125 8.7109375 C-39.76328125 9.0409375 -41.41328125 9.3709375 -43.11328125 9.7109375 C-43.11328125 6.85974158 -42.58791005 5.1952526 -40.58203125 3.1484375 C-29.10610752 -5.95943847 -12.75681528 -7.78142152 0 0 Z " fill="#98CD4D" transform="translate(74.11328125,14.2890625)"/>
<path d="M0 0 C3.95438583 1.44487175 4.27876972 2.46418911 6.125 6.125 C8.25 10.76926101 8.25 10.76926101 8.25 13.1875 C9.49716797 13.26097656 9.49716797 13.26097656 10.76953125 13.3359375 C11.85621094 13.41070312 12.94289062 13.48546875 14.0625 13.5625 C15.14144531 13.63210937 16.22039062 13.70171875 17.33203125 13.7734375 C20.25 14.1875 20.25 14.1875 23.25 16.1875 C23.6875 19.0625 23.6875 19.0625 23.25 22.1875 C21.375 24.5625 21.375 24.5625 19.25 26.1875 C18.59 26.1875 17.93 26.1875 17.25 26.1875 C14.13824287 30.85513569 15.67628563 35.69774761 16.3515625 40.97265625 C16.25 44.1875 16.25 44.1875 14.453125 46.16015625 C12.25 47.1875 12.25 47.1875 9.375 46.5625 C6.25 45.1875 6.25 45.1875 3.25 43.4375 C0.30883296 41.88058807 0.30883296 41.88058807 -2.75 42.8125 C-5.8068672 44.15955579 -5.8068672 44.15955579 -8.8125 45.9375 C-11.75 47.1875 -11.75 47.1875 -14.5625 46.6875 C-16.75 45.1875 -16.75 45.1875 -17.625 43.1875 C-17.77655106 39.55027447 -17.38823362 36.09611046 -16.90625 32.4921875 C-16.59260335 30.02690041 -16.59260335 30.02690041 -17.75 27.1875 C-18.41 27.1875 -19.07 27.1875 -19.75 27.1875 C-19.75 26.5275 -19.75 25.8675 -19.75 25.1875 C-20.389375 24.878125 -21.02875 24.56875 -21.6875 24.25 C-23.75 23.1875 -23.75 23.1875 -24.75 22.1875 C-24.9375 19.25 -24.9375 19.25 -24.75 16.1875 C-21.97957891 13.41707891 -19.98466195 13.78953894 -16.125 13.5625 C-14.93648437 13.48773438 -13.74796875 13.41296875 -12.5234375 13.3359375 C-11.15058594 13.26246094 -11.15058594 13.26246094 -9.75 13.1875 C-9.46253906 12.26582031 -9.17507812 11.34414063 -8.87890625 10.39453125 C-7.26572879 5.8117676 -5.23130187 0.35667967 0 0 Z M-1.75 5.1875 C-2.04132812 5.88617188 -2.33265625 6.58484375 -2.6328125 7.3046875 C-6.00937852 14.80108879 -6.00937852 14.80108879 -9.625 16.6875 C-10.65625 16.8525 -11.6875 17.0175 -12.75 17.1875 C-14.04578276 17.5480202 -15.33758309 17.92316021 -16.625 18.3125 C-18.171875 18.745625 -18.171875 18.745625 -19.75 19.1875 C-19.34007812 19.65800781 -18.93015625 20.12851562 -18.5078125 20.61328125 C-17.96898437 21.23589844 -17.43015625 21.85851562 -16.875 22.5 C-16.34132813 23.11488281 -15.80765625 23.72976562 -15.2578125 24.36328125 C-11.74570278 28.61238809 -11.74570278 28.61238809 -11.7734375 32.32421875 C-11.88945313 33.49597656 -12.00546875 34.66773438 -12.125 35.875 C-12.23585938 37.05449219 -12.34671875 38.23398437 -12.4609375 39.44921875 C-12.55632813 40.35285156 -12.65171875 41.25648437 -12.75 42.1875 C-12.16992188 41.89875 -11.58984375 41.61 -10.9921875 41.3125 C-2.68573265 37.36487789 -2.68573265 37.36487789 2.25 38.1875 C5.33114396 39.36707987 8.29731772 40.71772038 11.25 42.1875 C11.12818359 40.68509766 11.12818359 40.68509766 11.00390625 39.15234375 C10.40864691 28.56655995 10.40864691 28.56655995 12.80859375 24.6328125 C14.54162957 22.95208158 16.23289778 21.50993691 18.25 20.1875 C17.755 19.1975 17.755 19.1975 17.25 18.1875 C15.50601641 17.9504821 13.75380641 17.77271364 12 17.625 C6.79285871 16.80673494 6.79285871 16.80673494 4.4453125 14.12890625 C3.21338414 11.8509322 2.17844701 9.60326503 1.25 7.1875 C0.92 6.5275 0.59 5.8675 0.25 5.1875 C-0.41 5.1875 -1.07 5.1875 -1.75 5.1875 Z " fill="#98CD4D" transform="translate(56.75,20.8125)"/>
</svg>
