<?xml version="1.0" encoding="UTF-8"?>
<svg version="1.1" xmlns="http://www.w3.org/2000/svg" width="120" height="120">
<path d="M0 0 C7.52232484 4.36976475 11.28676869 10.62226228 13.5 18.875 C14.01463497 24.4590399 14.02335627 30.02072563 14 35.625 C13.98789359 38.55793695 14.00172564 41.48909342 14.03125 44.421875 C14.02673828 45.70932617 14.02222656 46.99677734 14.01757812 48.32324219 C14.58007959 52.46457382 16.01384504 54.57045686 18.5 57.875 C19.87218739 62.20708898 19.61483137 66.68297681 19.5625 71.1875 C19.55798828 71.92806641 19.55347656 72.66863281 19.54882812 73.43164062 C19.53712175 75.24612899 19.51918898 77.06057534 19.5 78.875 C24.45 78.875 29.4 78.875 34.5 78.875 C34.45590893 71.54219945 34.38613816 64.210265 34.29248047 56.87792969 C34.26424201 54.38320811 34.24304188 51.88839658 34.22900391 49.39355469 C34.20761501 45.80877534 34.16098292 42.22508082 34.109375 38.640625 C34.10814636 37.52383362 34.10691772 36.40704224 34.10565186 35.25640869 C34.08593323 34.21563171 34.0662146 33.17485474 34.04589844 32.10253906 C34.03701599 31.18764709 34.02813354 30.27275513 34.01898193 29.33013916 C33.33392796 26.08936579 32.08557002 24.89053554 29.5 22.875 C26.79447755 22.4259984 24.45769409 22.18130366 21.75 22.125 C21.05261719 22.09535156 20.35523437 22.06570312 19.63671875 22.03515625 C17.92509187 21.96481542 16.21254185 21.91760054 14.5 21.875 C14.5 20.885 14.5 19.895 14.5 18.875 C17.39740622 18.73960719 20.28845621 18.64073171 23.1875 18.5625 C24.00412109 18.52060547 24.82074219 18.47871094 25.66210938 18.43554688 C30.08664375 18.3459814 31.90455383 18.4151276 35.51953125 21.20703125 C38.41705884 25.11040668 38.62798225 27.91021197 38.64526367 32.64404297 C38.65164352 33.82892303 38.65802338 35.0138031 38.66459656 36.23458862 C38.66570938 37.51584625 38.6668222 38.79710388 38.66796875 40.1171875 C38.67296135 42.09067673 38.67296135 42.09067673 38.67805481 44.10403442 C38.68404157 46.88983988 38.6858952 49.67561434 38.68530273 52.46142578 C38.6852012 56.02459746 38.69884663 59.58756949 38.71607494 63.15069389 C38.72989381 66.55619474 38.72928439 69.96165898 38.73046875 73.3671875 C38.73765427 74.64439667 38.74483978 75.92160583 38.75224304 77.23751831 C38.74916641 78.4287027 38.74608978 79.61988708 38.74291992 80.84716797 C38.74434494 81.89290985 38.74576996 82.93865173 38.74723816 84.01608276 C38.38889309 88.15977526 37.24871287 90.94817228 34.64453125 94.171875 C29.66870093 96.86685888 24.74247701 96.29382455 19.1875 96.125 C18.06537109 96.10695313 16.94324219 96.08890625 15.78710938 96.0703125 C13.02386553 96.02327856 10.26237302 95.95756317 7.5 95.875 C7.5 98.185 7.5 100.495 7.5 102.875 C8.428125 102.813125 9.35625 102.75125 10.3125 102.6875 C13.5 102.875 13.5 102.875 15.375 104 C17.00531294 106.71718824 16.83015665 108.77152746 16.5 111.875 C13.92440872 114.45059128 12.9268332 114.12778679 9.34765625 114.13378906 C8.27314209 114.14009338 7.19862793 114.14639771 6.09155273 114.15289307 C4.92696533 114.1488446 3.76237793 114.14479614 2.5625 114.140625 C1.37148682 114.14253845 0.18047363 114.1444519 -1.04663086 114.14642334 C-3.56852428 114.1477863 -6.09042469 114.14408216 -8.61230469 114.13574219 C-12.48388349 114.12504453 -16.35499822 114.13563406 -20.2265625 114.1484375 C-22.67187603 114.14711593 -25.11718927 114.14455358 -27.5625 114.140625 C-29.3093811 114.14669769 -29.3093811 114.14669769 -31.09155273 114.15289307 C-32.70332397 114.14343658 -32.70332397 114.14343658 -34.34765625 114.13378906 C-35.7709021 114.13140228 -35.7709021 114.13140228 -37.22290039 114.12896729 C-39.5 113.875 -39.5 113.875 -41.5 111.875 C-41.83015665 108.77152746 -42.00531294 106.71718824 -40.375 104 C-37.71965017 102.4067901 -35.53210482 102.67285968 -32.5 102.875 C-32.5 100.565 -32.5 98.255 -32.5 95.875 C-33.20608398 95.88547363 -33.91216797 95.89594727 -34.63964844 95.90673828 C-37.84306266 95.9483479 -41.04641996 95.97434204 -44.25 96 C-45.36117187 96.01675781 -46.47234375 96.03351563 -47.6171875 96.05078125 C-49.22207031 96.06044922 -49.22207031 96.06044922 -50.859375 96.0703125 C-51.84389648 96.08078613 -52.82841797 96.09125977 -53.84277344 96.10205078 C-56.76027858 95.8527601 -58.18387676 95.6740324 -60.5 93.875 C-64.50323333 87.4483252 -63.91713239 80.61322816 -63.86328125 73.2421875 C-63.86377975 71.93218781 -63.86427826 70.62218811 -63.86479187 69.27249146 C-63.86470254 66.51048131 -63.85435204 63.74876545 -63.83618164 60.98681641 C-63.81345099 57.45510528 -63.81296261 53.92382165 -63.81969929 50.39205742 C-63.8238512 47.00871904 -63.81186459 43.62551118 -63.80078125 40.2421875 C-63.80169266 38.97752655 -63.80260406 37.7128656 -63.80354309 36.40988159 C-63.79401108 35.23160797 -63.78447906 34.05333435 -63.7746582 32.83935547 C-63.77005081 31.80567841 -63.76544342 30.77200134 -63.76069641 29.70700073 C-63.41610091 25.96358632 -62.4109071 23.08838704 -60.15307617 20.08081055 C-57.99543991 18.50695654 -56.70354178 18.52861996 -54.05078125 18.58203125 C-53.20322266 18.59169922 -52.35566406 18.60136719 -51.48242188 18.61132812 C-50.16081055 18.6490332 -50.16081055 18.6490332 -48.8125 18.6875 C-47.91982422 18.70103516 -47.02714844 18.71457031 -46.10742188 18.72851562 C-43.90433834 18.76385921 -41.70247418 18.81319507 -39.5 18.875 C-39.5 19.865 -39.5 20.855 -39.5 21.875 C-40.53640625 21.90078125 -41.5728125 21.9265625 -42.640625 21.953125 C-44.01045801 22.00941951 -45.38024805 22.06676655 -46.75 22.125 C-47.43191406 22.13917969 -48.11382812 22.15335938 -48.81640625 22.16796875 C-52.06454841 22.32564555 -54.0998934 22.56310395 -56.69537354 24.58636475 C-58.86042892 27.33209755 -59.01231103 28.64303563 -59.04589844 32.10253906 C-59.06561707 33.14331604 -59.08533569 34.18409302 -59.10565186 35.25640869 C-59.10688049 36.37320007 -59.10810913 37.48999146 -59.109375 38.640625 C-59.12591125 39.78915955 -59.14244751 40.93769409 -59.15948486 42.12103271 C-59.20806615 45.78907566 -59.22935923 49.4567037 -59.25 53.125 C-59.27815106 55.61200016 -59.30807725 58.0989809 -59.33984375 60.5859375 C-59.41382847 66.68225753 -59.4633417 72.77834585 -59.5 78.875 C-54.55 78.875 -49.6 78.875 -44.5 78.875 C-44.52320312 77.80121094 -44.54640625 76.72742188 -44.5703125 75.62109375 C-44.58908624 74.18490285 -44.6072847 72.74870435 -44.625 71.3125 C-44.65013672 70.25579102 -44.65013672 70.25579102 -44.67578125 69.17773438 C-44.72844429 63.4637944 -44.49219755 58.04343314 -40.44946289 53.64306641 C-37.9946891 50.15750282 -37.98000859 47.40372226 -38.06640625 43.30078125 C-38.05679274 41.81315005 -38.04702204 40.32551986 -38.03710938 38.83789062 C-38.04566136 36.5188364 -38.06237897 34.20006485 -38.0847168 31.88110352 C-38.15407583 21.2373345 -37.5438292 12.93925708 -30.47265625 4.4375 C-29.84230469 3.921875 -29.21195313 3.40625 -28.5625 2.875 C-27.93472656 2.33875 -27.30695312 1.8025 -26.66015625 1.25 C-18.81880551 -3.74123953 -8.3113478 -3.86950474 0 0 Z M-30.23828125 10.99609375 C-33.30087518 15.55679865 -33.74157856 19.48951927 -33.6953125 24.92578125 C-33.6924826 25.58458786 -33.68965271 26.24339447 -33.68673706 26.92216492 C-33.67560924 29.01080062 -33.65051948 31.09899556 -33.625 33.1875 C-33.61496059 34.61001982 -33.60583642 36.0325464 -33.59765625 37.45507812 C-33.57569447 40.92852681 -33.54121646 44.40172033 -33.5 47.875 C-28.55 47.38 -28.55 47.38 -23.5 46.875 C-23.07465476 42.91487612 -23.07465476 42.91487612 -25.3125 40.6875 C-30.49478376 34.02456374 -31.05568768 26.0717962 -31.5 17.875 C-30.60539062 18.12636719 -29.71078125 18.37773437 -28.7890625 18.63671875 C-20.91310941 20.62669837 -14.92446735 21.62894417 -7.5 17.875 C-6.16366969 16.87900849 -4.83006895 15.87933778 -3.5 14.875 C-2.51 14.545 -1.52 14.215 -0.5 13.875 C-1.16 15.525 -1.82 17.175 -2.5 18.875 C0.8340947 21.06597652 3.54179141 22.30954163 7.5 22.875 C7.17 24.855 6.84 26.835 6.5 28.875 C7.49 29.205 8.48 29.535 9.5 29.875 C10.19314508 21.7729042 9.38202817 15.55567012 4.5 8.875 C-1.72813913 2.91343492 -6.967043 1.49884992 -15.4921875 1.6015625 C-22.18350655 2.20986423 -26.03390465 6.03147371 -30.23828125 10.99609375 Z M-11.5 22.875 C-14.30993945 23.01260722 -17.01001924 23.06511573 -19.8125 23 C-20.55306641 22.99097656 -21.29363281 22.98195313 -22.05664062 22.97265625 C-23.87123467 22.94924213 -25.68566071 22.91337615 -27.5 22.875 C-27.20752687 29.19241951 -26.23765201 34.63736922 -22.5 39.875 C-19.93600226 41.88619746 -19.93600226 41.88619746 -17.5 42.875 C-17.520625 42.070625 -17.54125 41.26625 -17.5625 40.4375 C-17.5 37.875 -17.5 37.875 -16.5 36.875 C-14.6875 36.7421875 -14.6875 36.7421875 -12.5 36.75 C-11.778125 36.74742188 -11.05625 36.74484375 -10.3125 36.7421875 C-8.5 36.875 -8.5 36.875 -7.5 37.875 C-5.16702567 37.91592937 -2.83294775 37.91741723 -0.5 37.875 C1.71854707 33.25302694 2.88281159 30.10675837 2.5 24.875 C1.1153832 24.14498417 -0.28337645 23.44175418 -1.6875 22.75 C-2.85345703 22.15832031 -2.85345703 22.15832031 -4.04296875 21.5546875 C-7.26063674 20.66458539 -8.4470065 21.61169234 -11.5 22.875 Z M8.5 34.875 C7.778125 35.596875 7.05625 36.31875 6.3125 37.0625 C3.49322407 39.88177593 0.5887171 42.36092794 -2.5 44.875 C-2.17 45.535 -1.84 46.195 -1.5 46.875 C1.07951874 47.56593896 1.07951874 47.56593896 4.0625 48 C5.856875 48.28875 7.65125 48.5775 9.5 48.875 C9.5 44.255 9.5 39.635 9.5 34.875 C9.17 34.875 8.84 34.875 8.5 34.875 Z M-7.5 41.875 C-7.83 42.535 -8.16 43.195 -8.5 43.875 C-7.51 43.545 -6.52 43.215 -5.5 42.875 C-6.16 42.545 -6.82 42.215 -7.5 41.875 Z M-15.5 43.875 C-15.5 44.205 -15.5 44.535 -15.5 44.875 C-13.52 44.875 -11.54 44.875 -9.5 44.875 C-9.5 44.545 -9.5 44.215 -9.5 43.875 C-11.48 43.875 -13.46 43.875 -15.5 43.875 Z M-19.5 46.875 C-19.83 48.195 -20.16 49.515 -20.5 50.875 C-16.71916742 53.39555505 -12.88281981 53.34202178 -8.5 52.875 C-6.09442147 52.01234032 -6.09442147 52.01234032 -4.5 50.875 C-4.83 49.885 -5.16 48.895 -5.5 47.875 C-6.17546875 47.88660156 -6.8509375 47.89820313 -7.546875 47.91015625 C-8.88492188 47.92369141 -8.88492188 47.92369141 -10.25 47.9375 C-11.57257812 47.95490234 -11.57257812 47.95490234 -12.921875 47.97265625 C-15.2818838 47.88326198 -17.24498524 47.54412821 -19.5 46.875 Z M-37.75 56.3125 C-40.95130082 61.00011906 -40.62599123 65.59637862 -40.5625 71.125 C-40.55798828 71.87007812 -40.55347656 72.61515625 -40.54882812 73.3828125 C-40.53709246 75.2135764 -40.5191585 77.04429873 -40.5 78.875 C-37.53 78.875 -34.56 78.875 -31.5 78.875 C-31.17 75.245 -30.84 71.615 -30.5 67.875 C-29.51 67.545 -28.52 67.215 -27.5 66.875 C-27.5 70.835 -27.5 74.795 -27.5 78.875 C-17.6 78.875 -7.7 78.875 2.5 78.875 C2.5 74.915 2.5 70.955 2.5 66.875 C3.49 67.205 4.48 67.535 5.5 67.875 C5.995 73.32 5.995 73.32 6.5 78.875 C9.47 78.875 12.44 78.875 15.5 78.875 C15.58172936 76.3534979 15.64083373 73.83470083 15.6875 71.3125 C15.71263672 70.60802734 15.73777344 69.90355469 15.76367188 69.17773438 C15.83546095 63.98499148 14.93371538 60.48291134 12.5 55.875 C9.3179361 52.92577004 6.96628258 51.03437854 2.625 50.5625 C-1.22646406 50.94764641 -1.96556021 52.08711623 -4.5 54.875 C-9.26601064 56.91757599 -15.02303912 56.22409984 -19.9375 55.0625 C-20.783125 54.670625 -21.62875 54.27875 -22.5 53.875 C-22.83 52.885 -23.16 51.895 -23.5 50.875 C-30.09442641 50.48709256 -33.2691807 51.45827909 -37.75 56.3125 Z M-59.5 82.875 C-59.17 85.185 -58.84 87.495 -58.5 89.875 C-54.71224672 92.40016885 -51.69949747 92.15630889 -47.3125 92.13378906 C-46.47807373 92.1372937 -45.64364746 92.14079834 -44.78393555 92.14440918 C-42.02253936 92.15321999 -39.26139885 92.14737964 -36.5 92.140625 C-34.58333283 92.14197184 -32.666666 92.14391253 -30.75 92.14642334 C-26.73173777 92.14937372 -22.71356441 92.1450797 -18.6953125 92.13574219 C-13.54012986 92.12434772 -8.38515546 92.13090765 -3.22998047 92.14288712 C0.72820612 92.15010802 4.68634319 92.14781672 8.64453125 92.14263153 C10.54557317 92.14129567 12.44661955 92.14294052 14.34765625 92.14759064 C17.00272562 92.15265962 19.65745594 92.1449404 22.3125 92.13378906 C23.49549683 92.13986176 23.49549683 92.13986176 24.70239258 92.14605713 C28.50518164 92.11641071 30.25738833 92.03674111 33.5 89.875 C33.83 87.565 34.16 85.255 34.5 82.875 C3.48 82.875 -27.54 82.875 -59.5 82.875 Z M-28.5 95.875 C-28.5 98.185 -28.5 100.495 -28.5 102.875 C-17.94 102.875 -7.38 102.875 3.5 102.875 C3.5 100.565 3.5 98.255 3.5 95.875 C-7.06 95.875 -17.62 95.875 -28.5 95.875 Z M-37.5 106.875 C-37.5 107.865 -37.5 108.855 -37.5 109.875 C-21 109.875 -4.5 109.875 12.5 109.875 C12.5 108.885 12.5 107.895 12.5 106.875 C-4 106.875 -20.5 106.875 -37.5 106.875 Z " fill="#4E82E0" transform="translate(72.5,4.125)"/>
<path d="M0 0 C1.32 0 2.64 0 4 0 C3.67 1.65 3.34 3.3 3 5 C2.01 4.67 1.02 4.34 0 4 C0 2.68 0 1.36 0 0 Z " fill="#98CD4D" transform="translate(58,89)"/>
<path d="M0 0 C1.32 0.33 2.64 0.66 4 1 C3.67 1.99 3.34 2.98 3 4 C2.01 4 1.02 4 0 4 C0 2.68 0 1.36 0 0 Z " fill="#98CD4D" transform="translate(63,31)"/>
<path d="M0 0 C1.32 0.33 2.64 0.66 4 1 C3.67 1.99 3.34 2.98 3 4 C2.01 4 1.02 4 0 4 C0 2.68 0 1.36 0 0 Z " fill="#98CD4D" transform="translate(54,31)"/>
</svg>
