<?xml version="1.0" encoding="UTF-8"?>
<svg version="1.1" xmlns="http://www.w3.org/2000/svg" width="120" height="120">
<path d="M0 0 C3.4609488 1.56678087 6.25709784 3.51419567 8 7 C7.74131445 14.88990934 5.39753732 21.8873985 2 29 C-0.36613456 30.18306728 -1.86780736 30.13354608 -4.5 30.125 C-5.2940625 30.12757812 -6.088125 30.13015625 -6.90625 30.1328125 C-9 30 -9 30 -11 29 C-14.36118172 40.34398831 -14.36118172 53.65601169 -11 65 C-10.01 64.505 -10.01 64.505 -9 64 C-6.94140625 63.796875 -6.94140625 63.796875 -4.5625 63.75 C-3.78003906 63.72421875 -2.99757813 63.6984375 -2.19140625 63.671875 C-0 64 -0 64 1.6171875 65.08984375 C3.59104481 67.81644325 4.56414015 70.64482764 5.6875 73.8125 C6.12449219 75.01519531 6.56148437 76.21789062 7.01171875 77.45703125 C7.97030895 80.89355816 8.37560931 83.46216632 8 87 C5.00460731 90.5620886 2.06145034 93.74417788 -2.70703125 94.3359375 C-9.02869214 94.41545525 -13.11751521 94.42830016 -18 90 C-18.56074219 89.53722656 -19.12148438 89.07445313 -19.69921875 88.59765625 C-28.52485815 80.76753366 -33.1197822 68.49477889 -34.31738281 56.93701172 C-34.47255014 53.72204472 -34.51864752 50.53110942 -34.5 47.3125 C-34.49500488 46.17562744 -34.49000977 45.03875488 -34.48486328 43.86743164 C-34.19616491 29.84963228 -30.95429883 16.84680831 -20.6875 6.71875 C-13.78191932 0.43290092 -9.47948518 -1.11238857 0 0 Z M-22.6015625 15.14453125 C-23.95129792 17.37614901 -24.99405647 19.59415027 -26 22 C-26.39058594 22.86238281 -26.78117187 23.72476563 -27.18359375 24.61328125 C-32.29911093 37.97734862 -32.33503075 55.92607676 -27.26171875 69.3125 C-23.70943195 76.87898087 -19.64599436 83.7379173 -13 89 C-10.24921116 89.91692961 -8.64051087 90.10886083 -5.8125 90.0625 C-4.554375 90.041875 -3.29625 90.02125 -2 90 C-2.78488708 85.42600291 -4.15526122 81.09842491 -5.5625 76.6875 C-5.79646484 75.94693359 -6.03042969 75.20636719 -6.27148438 74.44335938 C-6.84531972 72.62816595 -7.42234011 70.81397994 -8 69 C-9.98 68.67 -11.96 68.34 -14 68 C-18.95248143 55.14713154 -18.95248143 38.85286846 -14 26 C-12.02 25.67 -10.04 25.34 -8 25 C-6.99263372 22.06497405 -5.99539496 19.12660539 -5 16.1875 C-4.71382812 15.35412109 -4.42765625 14.52074219 -4.1328125 13.66210938 C-3.72675781 12.45844727 -3.72675781 12.45844727 -3.3125 11.23046875 C-3.06113281 10.49207764 -2.80976562 9.75368652 -2.55078125 8.99291992 C-1.86680849 6.86267121 -1.86680849 6.86267121 -2 4 C-11.84212364 2.57130463 -16.86903962 7.4685433 -22.6015625 15.14453125 Z M2 7 C-1.09761199 13.22529789 -2.91081033 19.13523882 -4 26 C-3.01 26 -2.02 26 -1 26 C-0.13020539 23.77585391 0.72083184 21.54727408 1.5625 19.3125 C1.80935547 18.68666016 2.05621094 18.06082031 2.31054688 17.41601562 C3.74841632 13.5479443 4.26575069 10.96399767 3 7 C2.67 7 2.34 7 2 7 Z M-4 68 C-2.91081033 74.86476118 -1.09761199 80.77470211 2 87 C2.66 86.67 3.32 86.34 4 86 C3.42934122 79.58008874 1.32655091 73.98410537 -1 68 C-1.99 68 -2.98 68 -4 68 Z " fill="#4D82E0" transform="translate(46,12)"/>
<path d="M0 0 C0.72711182 0.00404846 1.45422363 0.00809692 2.20336914 0.01226807 C2.95046143 0.01035461 3.69755371 0.00844116 4.46728516 0.00646973 C6.04761085 0.00510809 7.62794772 0.00880307 9.20825195 0.01715088 C11.63135836 0.02785107 14.05372337 0.01725527 16.47680664 0.00445557 C18.01066245 0.00577717 19.54451779 0.00833957 21.07836914 0.01226807 C21.80548096 0.0082196 22.53259277 0.00417114 23.28173828 0 C28.41094553 0.04796946 28.41094553 0.04796946 30.64086914 2.27789307 C30.9107882 4.96628691 30.72824271 7.56931243 30.64086914 10.27789307 C31.91704102 10.2662915 33.19321289 10.25468994 34.50805664 10.24273682 C36.17732602 10.2333589 37.84659697 10.2242587 39.51586914 10.21539307 C40.77850586 10.20282471 40.77850586 10.20282471 42.06665039 10.19000244 C42.87231445 10.18677979 43.67797852 10.18355713 44.50805664 10.18023682 C45.25168457 10.175 45.9953125 10.16976318 46.76147461 10.16436768 C48.64086914 10.27789307 48.64086914 10.27789307 50.64086914 11.27789307 C50.69869954 15.73617233 50.73440769 20.19435586 50.76586914 24.65289307 C50.78262695 25.92390869 50.79938477 27.19492432 50.81665039 28.50445557 C50.82631836 30.32203369 50.82631836 30.32203369 50.83618164 32.17633057 C50.85189209 33.85734863 50.85189209 33.85734863 50.86791992 35.57232666 C50.64086914 38.27789307 50.64086914 38.27789307 48.64086914 40.27789307 C47.32086914 40.27789307 46.00086914 40.27789307 44.64086914 40.27789307 C44.64086914 42.25789307 44.64086914 44.23789307 44.64086914 46.27789307 C40.99055723 45.93024431 38.96213621 45.52289496 36.00805664 43.27008057 C31.66687578 40.7016325 28.33559528 40.68479453 23.39086914 40.65289307 C14.88122284 40.51824676 14.88122284 40.51824676 12.64086914 38.27789307 C12.37095008 35.58949922 12.55349557 32.9864737 12.64086914 30.27789307 C11.96540039 30.72261963 11.28993164 31.16734619 10.59399414 31.62554932 C9.70196289 32.19144775 8.80993164 32.75734619 7.89086914 33.34039307 C7.00915039 33.90886963 6.12743164 34.47734619 5.21899414 35.06304932 C2.64086914 36.27789307 2.64086914 36.27789307 0.31274414 35.96148682 C-0.51483398 35.62310791 -0.51483398 35.62310791 -1.35913086 35.27789307 C-1.35913086 33.62789307 -1.35913086 31.97789307 -1.35913086 30.27789307 C-2.16350586 30.13351807 -2.96788086 29.98914307 -3.79663086 29.84039307 C-6.35913086 29.27789307 -6.35913086 29.27789307 -7.35913086 28.27789307 C-7.61255321 23.9714167 -7.54435724 19.65344253 -7.54663086 15.34039307 C-7.565 13.51218018 -7.565 13.51218018 -7.58374023 11.64703369 C-7.58567383 10.48494385 -7.58760742 9.322854 -7.58959961 8.12554932 C-7.5937085 7.05312988 -7.59781738 5.98071045 -7.60205078 4.87579346 C-7.13231403 -0.14779322 -4.41335572 0.04127466 0 0 Z M-3.35913086 4.27789307 C-3.35913086 11.53789307 -3.35913086 18.79789307 -3.35913086 26.27789307 C-1.37913086 26.27789307 0.60086914 26.27789307 2.64086914 26.27789307 C2.64086914 27.59789307 2.64086914 28.91789307 2.64086914 30.27789307 C6.18605798 28.88029402 6.18605798 28.88029402 9.64086914 27.27789307 C12.52154651 27.04502394 15.38099433 26.85843366 18.26586914 26.71539307 C22.41149414 26.49883057 22.41149414 26.49883057 26.64086914 26.27789307 C26.64086914 19.01789307 26.64086914 11.75789307 26.64086914 4.27789307 C16.74086914 4.27789307 6.84086914 4.27789307 -3.35913086 4.27789307 Z M30.64086914 14.27789307 C30.5802832 15.26531494 30.51969727 16.25273682 30.45727539 17.27008057 C30.37348633 18.55140869 30.28969727 19.83273682 30.20336914 21.15289307 C30.1221582 22.42906494 30.04094727 23.70523682 29.95727539 25.02008057 C29.64086914 28.27789307 29.64086914 28.27789307 28.64086914 30.27789307 C33.59086914 30.60789307 38.54086914 30.93789307 43.64086914 31.27789307 C43.97086914 32.26789307 44.30086914 33.25789307 44.64086914 34.27789307 C37.38086914 34.27789307 30.12086914 34.27789307 22.64086914 34.27789307 C22.97086914 32.95789307 23.30086914 31.63789307 23.64086914 30.27789307 C21.33086914 30.27789307 19.02086914 30.27789307 16.64086914 30.27789307 C16.64086914 32.25789307 16.64086914 34.23789307 16.64086914 36.27789307 C17.81004883 36.31527588 18.97922852 36.35265869 20.18383789 36.39117432 C21.73204589 36.45685587 23.28022156 36.52330245 24.82836914 36.59039307 C25.59729492 36.61295166 26.3662207 36.63551025 27.15844727 36.65875244 C31.84033291 36.87978567 34.70770579 37.51504951 38.64086914 40.27789307 C39.30086914 40.27789307 39.96086914 40.27789307 40.64086914 40.27789307 C40.64086914 38.95789307 40.64086914 37.63789307 40.64086914 36.27789307 C42.09493164 36.30883057 42.09493164 36.30883057 43.57836914 36.34039307 C46.51552809 36.63407806 46.51552809 36.63407806 47.64086914 35.27789307 C47.73967711 33.80136643 47.7716616 32.32022071 47.77368164 30.84039307 C47.7749707 29.94578369 47.77625977 29.05117432 47.77758789 28.12945557 C47.77178711 26.71793213 47.77178711 26.71793213 47.76586914 25.27789307 C47.76973633 24.33687744 47.77360352 23.39586182 47.77758789 22.42633057 C47.7756543 21.0844165 47.7756543 21.0844165 47.77368164 19.71539307 C47.77255371 18.889104 47.77142578 18.06281494 47.77026367 17.21148682 C47.85351721 15.27110267 47.85351721 15.27110267 46.64086914 14.27789307 C43.94432061 14.20469685 41.27395456 14.18546769 38.57836914 14.21539307 C37.44044922 14.22216064 37.44044922 14.22216064 36.27954102 14.22906494 C34.39995043 14.24088627 32.52040015 14.25882229 30.64086914 14.27789307 Z " fill="#4D81DF" transform="translate(55.359130859375,40.72210693359375)"/>
<path d="M0 0 C3.63 0 7.26 0 11 0 C11 1.32 11 2.64 11 4 C7.37 4 3.74 4 0 4 C0 2.68 0 1.36 0 0 Z " fill="#98CD4D" transform="translate(88,58)"/>
<path d="M0 0 C3.96 0 7.92 0 12 0 C12 0.99 12 1.98 12 3 C9.63386544 4.18306728 8.13219264 4.13354608 5.5 4.125 C4.7059375 4.12757812 3.911875 4.13015625 3.09375 4.1328125 C1 4 1 4 -1 3 C-0.67 2.01 -0.34 1.02 0 0 Z " fill="#98CD4D" transform="translate(88,65)"/>
<path d="M0 0 C0.99 0 1.98 0 3 0 C3 1.32 3 2.64 3 4 C1.68 3.67 0.36 3.34 -1 3 C-0.67 2.01 -0.34 1.02 0 0 Z " fill="#98CD4D" transform="translate(74,54)"/>
<path d="M0 0 C1.32 0 2.64 0 4 0 C3.67 1.32 3.34 2.64 3 4 C2.01 3.67 1.02 3.34 0 3 C0 2.01 0 1.02 0 0 Z " fill="#98CD4D" transform="translate(65,54)"/>
<path d="M0 0 C1.32 0.33 2.64 0.66 4 1 C3.67 1.99 3.34 2.98 3 4 C2.01 4 1.02 4 0 4 C0 2.68 0 1.36 0 0 Z " fill="#98CD4D" transform="translate(57,54)"/>
</svg>
