<?xml version="1.0" encoding="UTF-8"?>
<svg version="1.1" xmlns="http://www.w3.org/2000/svg" width="120" height="120">
<path d="M0 0 C2.61162497 2.37420452 4.33427804 4.80260541 6.0625 7.875 C6.0625 8.865 6.0625 9.855 6.0625 10.875 C7.20138672 10.84019531 7.20138672 10.84019531 8.36328125 10.8046875 C9.35714844 10.78664063 10.35101563 10.76859375 11.375 10.75 C12.36113281 10.72679687 13.34726563 10.70359375 14.36328125 10.6796875 C17.0625 10.875 17.0625 10.875 20.0625 12.875 C20.35973311 15.40731701 20.46175809 17.69595676 20.43481445 20.23046875 C20.43846512 20.98832672 20.44211578 21.74618469 20.44587708 22.52700806 C20.45400147 25.03906471 20.44035726 27.5504801 20.42578125 30.0625 C20.42526287 31.80362955 20.42577972 33.5447597 20.42729187 35.28588867 C20.42720206 38.93775145 20.41675532 42.58939386 20.39868164 46.24121094 C20.37599411 50.92908482 20.37544942 55.6166365 20.38219929 60.30455017 C20.38553614 63.90070474 20.37891455 67.49678545 20.36907005 71.09292603 C20.36521286 72.8217429 20.36407198 74.55056798 20.3656559 76.27938843 C20.36602556 78.69292942 20.3534345 81.10605281 20.3371582 83.51953125 C20.33963562 84.23855621 20.34211304 84.95758118 20.34466553 85.69839478 C20.29124182 90.64625818 20.29124182 90.64625818 18.0625 92.875 C15.31871616 93.08932512 12.67462568 93.17911049 9.9284668 93.18139648 C8.66723495 93.19388176 8.66723495 93.19388176 7.38052368 93.20661926 C4.5908754 93.23078526 1.80146072 93.2395 -0.98828125 93.24609375 C-2.92400688 93.25505609 -4.85973178 93.26417785 -6.79545593 93.27345276 C-10.85836472 93.28996396 -14.92119091 93.29764656 -18.98413086 93.30053711 C-24.18985033 93.3059187 -29.39479298 93.34358032 -34.60029316 93.38928127 C-38.60060963 93.41903068 -42.60073875 93.42626023 -46.60115623 93.42726326 C-48.52011861 93.4314709 -50.43908128 93.44392693 -52.35793495 93.46478081 C-55.04429705 93.49164752 -57.7288552 93.48688397 -60.4152832 93.47436523 C-61.20767899 93.48919952 -62.00007477 93.50403381 -62.81648254 93.51931763 C-66.63538367 93.46865777 -68.7501956 93.00237448 -71.93069458 90.83950806 C-74.44538851 87.12473315 -74.63692732 84.1823325 -74.56860352 79.84350586 C-74.57575882 79.04940811 -74.58291412 78.25531036 -74.59028625 77.43714905 C-74.60715071 74.82078965 -74.58778701 72.20614908 -74.56640625 69.58984375 C-74.56723508 67.76811074 -74.56969499 65.94637781 -74.57371521 64.12464905 C-74.57657155 60.31065301 -74.56188682 56.49724478 -74.53442383 52.68334961 C-74.50031691 47.79486073 -74.50636873 42.90742113 -74.5250864 38.0188818 C-74.53565418 34.25874586 -74.52672104 30.49885414 -74.51170158 26.73874092 C-74.5065193 24.93622119 -74.50700215 23.13367596 -74.51324654 21.33115959 C-74.51869713 18.81258141 -74.49833117 16.29550648 -74.47094727 13.77709961 C-74.47747314 13.03257538 -74.48399902 12.28805115 -74.49072266 11.52096558 C-74.42666473 8.05623534 -74.18196862 6.19511973 -72.05162048 3.40553284 C-68.4330182 0.7858195 -65.28660127 1.61917051 -60.9375 1.875 C-60.9375 4.845 -60.9375 7.815 -60.9375 10.875 C-48.3975 10.545 -35.8575 10.215 -22.9375 9.875 C-21.6175 7.235 -20.2975 4.595 -18.9375 1.875 C-14.13126551 -2.78559102 -5.93395031 -2.27257672 0 0 Z M-17.9375 7.875 C-19.35286458 12.67151329 -19.42318471 15.47586843 -17.3125 20 C-15.24214228 23.66294059 -12.74722417 26.75308426 -9.9375 29.875 C-6.46486857 29.31126113 -5.02432935 28.26649033 -2.8125 25.5625 C-2.31492187 24.96824219 -1.81734375 24.37398437 -1.3046875 23.76171875 C1.53185884 19.84728481 2.50130679 16.84471949 2.390625 11.91015625 C1.85423147 8.58323925 0.17401942 6.42124401 -1.9375 3.875 C-8.245472 0.721014 -13.6207191 2.82120773 -17.9375 7.875 Z M-67.9375 5.875 C-70.22625783 7.73467462 -70.22625783 7.73467462 -70.17800903 10.65908813 C-70.17356781 11.84489471 -70.16912659 13.03070129 -70.16455078 14.25244141 C-70.16484283 14.90622269 -70.16513489 15.56000397 -70.16543579 16.2335968 C-70.16404065 18.39805296 -70.1484712 20.56216636 -70.1328125 22.7265625 C-70.12908302 24.22585868 -70.12623574 25.7251573 -70.12423706 27.22445679 C-70.11659548 31.17336743 -70.0969426 35.12213129 -70.0748291 39.07098389 C-70.0543819 43.09938572 -70.04523776 47.12781124 -70.03515625 51.15625 C-70.01369711 59.06256741 -69.97955495 66.96876545 -69.9375 74.875 C-67.4625 74.38 -67.4625 74.38 -64.9375 73.875 C-64.9375 51.435 -64.9375 28.995 -64.9375 5.875 C-65.9275 5.875 -66.9175 5.875 -67.9375 5.875 Z M-60.9375 14.875 C-60.9375 23.455 -60.9375 32.035 -60.9375 40.875 C-56.9775 40.875 -53.0175 40.875 -48.9375 40.875 C-47.66444444 39.82628747 -47.66444444 39.82628747 -47.82397461 37.46655273 C-47.83182983 35.90336304 -47.83182983 35.90336304 -47.83984375 34.30859375 C-47.84306641 33.18388672 -47.84628906 32.05917969 -47.84960938 30.90039062 C-47.85798828 29.71638672 -47.86636719 28.53238281 -47.875 27.3125 C-47.87951172 26.12462891 -47.88402344 24.93675781 -47.88867188 23.71289062 C-47.90050314 20.76690588 -47.91843924 17.82094684 -47.9375 14.875 C-52.2275 14.875 -56.5175 14.875 -60.9375 14.875 Z M-43.9375 14.875 C-44.2675 24.115 -44.5975 33.355 -44.9375 42.875 C-47.8990696 44.3557848 -50.77256295 44.22814037 -54.0625 44.4375 C-55.34382813 44.52128906 -56.62515625 44.60507812 -57.9453125 44.69140625 C-58.93273437 44.75199219 -59.92015625 44.81257813 -60.9375 44.875 C-60.9375 46.525 -60.9375 48.175 -60.9375 49.875 C-55.6575 50.205 -50.3775 50.535 -44.9375 50.875 C-44.6075 63.415 -44.2775 75.955 -43.9375 88.875 C-41.9575 88.875 -39.9775 88.875 -37.9375 88.875 C-37.91244385 87.75939697 -37.8873877 86.64379395 -37.86157227 85.49438477 C-37.76766579 81.3700741 -37.66740486 77.2459385 -37.56518555 73.12182617 C-37.521773 71.3341073 -37.48010271 69.54634526 -37.44018555 67.75854492 C-37.3826354 65.19436609 -37.31889797 62.63040588 -37.25390625 60.06640625 C-37.23719376 59.2622377 -37.22048126 58.45806915 -37.20326233 57.62953186 C-37.05137171 51.98887171 -37.05137171 51.98887171 -35.9375 50.875 C-31.68001574 50.65690244 -27.41704276 50.68920839 -23.15454102 50.68969727 C-21.01233 50.68751257 -18.87063529 50.66936488 -16.72851562 50.65039062 C-15.3723976 50.64745641 -14.01627712 50.6454718 -12.66015625 50.64453125 C-11.42015869 50.64042236 -10.18016113 50.63631348 -8.90258789 50.63208008 C-5.9375 50.875 -5.9375 50.875 -3.9375 52.875 C-3.69193629 55.59500357 -3.56393514 58.22074257 -3.5234375 60.9453125 C-3.50407135 61.74154022 -3.4847052 62.53776794 -3.4647522 63.35812378 C-3.40489526 65.90530634 -3.35854721 68.45253395 -3.3125 71 C-3.27432579 72.7252803 -3.23527439 74.45054143 -3.1953125 76.17578125 C-3.09918891 80.40869876 -3.01518092 84.64170549 -2.9375 88.875 C-1.2875 88.875 0.3625 88.875 2.0625 88.875 C2.08231934 87.79492676 2.10213867 86.71485352 2.12255859 85.60205078 C2.19851623 81.60246087 2.28724816 77.60323948 2.37988281 73.60400391 C2.41821341 71.87165593 2.45305906 70.13922726 2.484375 68.40673828 C2.52993765 65.91930251 2.58794503 63.43242434 2.6484375 60.9453125 C2.65998871 60.16817902 2.67153992 59.39104553 2.68344116 58.59036255 C2.83475659 53.10274341 2.83475659 53.10274341 5.0625 50.875 C7.6640625 50.4609375 7.6640625 50.4609375 10.6875 50.25 C11.69039063 50.17523438 12.69328125 50.10046875 13.7265625 50.0234375 C14.49742188 49.97445312 15.26828125 49.92546875 16.0625 49.875 C16.0625 48.225 16.0625 46.575 16.0625 44.875 C15.08864098 44.8595388 15.08864098 44.8595388 14.09510803 44.84376526 C7.36350948 44.73593864 0.6320513 44.62132219 -6.09936523 44.50268555 C-8.61463496 44.45925994 -11.12993563 44.41759071 -13.64526367 44.37768555 C-17.25188544 44.32016707 -20.85835031 44.25642033 -24.46484375 44.19140625 C-25.59711899 44.17469376 -26.72939423 44.15798126 -27.89598083 44.14076233 C-28.93698441 44.12081711 -29.97798798 44.10087189 -31.05053711 44.08032227 C-31.97209091 44.06477798 -32.89364471 44.0492337 -33.84312439 44.03321838 C-35.9375 43.875 -35.9375 43.875 -36.9375 42.875 C-37.0959265 40.8041528 -37.18874422 38.72821971 -37.25390625 36.65234375 C-37.29580078 35.39228516 -37.33769531 34.13222656 -37.38085938 32.83398438 C-37.42067596 31.49349264 -37.46038814 30.1529978 -37.5 28.8125 C-37.54318042 27.46808477 -37.58679456 26.1236834 -37.63085938 24.77929688 C-37.73735358 21.4779766 -37.8393646 18.17657764 -37.9375 14.875 C-39.9175 14.875 -41.8975 14.875 -43.9375 14.875 Z M-33.9375 14.875 C-33.9375 23.455 -33.9375 32.035 -33.9375 40.875 C-17.4375 40.875 -0.9375 40.875 16.0625 40.875 C16.0625 32.295 16.0625 23.715 16.0625 14.875 C12.7625 14.875 9.4625 14.875 6.0625 14.875 C5.82015625 15.61105469 5.5778125 16.34710937 5.328125 17.10546875 C2.9623729 23.99344697 0.67323462 30.06881946 -5.9375 33.875 C-8.3125 34.19140625 -8.3125 34.19140625 -10.9375 33.875 C-17.33880273 28.93991745 -20.41155519 22.34758674 -22.9375 14.875 C-26.5675 14.875 -30.1975 14.875 -33.9375 14.875 Z M-60.9375 53.875 C-61.2675 61.465 -61.5975 69.055 -61.9375 76.875 C-63.9175 77.535 -65.8975 78.195 -67.9375 78.875 C-70.16716747 80.69703581 -70.16716747 80.69703581 -70.25 83.3125 C-70.15546468 85.8723531 -70.15546468 85.8723531 -68.69604492 87.5168457 C-66.46577113 89.23932427 -65.28112462 89.2242005 -62.48828125 89.16796875 C-61.21694336 89.1534668 -61.21694336 89.1534668 -59.91992188 89.13867188 C-58.59831055 89.1009668 -58.59831055 89.1009668 -57.25 89.0625 C-56.35732422 89.04896484 -55.46464844 89.03542969 -54.54492188 89.02148438 C-52.34183834 88.98614079 -50.13997418 88.93680493 -47.9375 88.875 C-47.9128481 84.05119198 -47.89466307 79.22742033 -47.88256836 74.40356445 C-47.87752826 72.76130536 -47.87069622 71.11905077 -47.86206055 69.47680664 C-47.84998074 67.12124521 -47.84426861 64.76574291 -47.83984375 62.41015625 C-47.83468246 61.67160904 -47.82952118 60.93306183 -47.82420349 60.1721344 C-47.8240075 58.40601912 -47.87555281 56.64002854 -47.9375 54.875 C-49.02302366 53.56237429 -49.02302366 53.56237429 -51.66015625 53.77734375 C-52.76230469 53.78894531 -53.86445312 53.80054688 -55 53.8125 C-57.9390625 53.8434375 -57.9390625 53.8434375 -60.9375 53.875 Z M-33.9375 53.875 C-33.9375 65.425 -33.9375 76.975 -33.9375 88.875 C-25.0275 88.875 -16.1175 88.875 -6.9375 88.875 C-6.9145898 84.05112933 -6.89466314 79.22744611 -6.88256836 74.40356445 C-6.87752826 72.76130536 -6.87069622 71.11905077 -6.86206055 69.47680664 C-6.84998074 67.12124521 -6.84426861 64.76574291 -6.83984375 62.41015625 C-6.83468246 61.67160904 -6.82952118 60.93306183 -6.82420349 60.1721344 C-6.8240075 58.40601912 -6.87555281 56.64002854 -6.9375 54.875 C-7.99700052 53.59073103 -7.99700052 53.59073103 -10.43774414 53.76147461 C-12.06377563 53.76932983 -12.06377563 53.76932983 -13.72265625 53.77734375 C-15.30252319 53.78109009 -15.30252319 53.78109009 -16.91430664 53.78491211 C-18.93672485 53.79856812 -18.93672485 53.79856812 -21 53.8125 C-25.269375 53.833125 -29.53875 53.85375 -33.9375 53.875 Z M7.0625 53.875 C5.68932912 55.02088101 5.68932912 55.02088101 5.94897461 58.10961914 C5.94913369 59.54314126 5.95482593 60.97666912 5.96484375 62.41015625 C5.9662587 63.16340683 5.96767365 63.91665741 5.96913147 64.69273376 C5.97474624 67.1076956 5.98730117 69.52256601 6 71.9375 C6.0050131 73.57096221 6.00957634 75.20442586 6.01367188 76.83789062 C6.02472046 80.85029585 6.04199494 84.86263241 6.0625 88.875 C9.3625 88.875 12.6625 88.875 16.0625 88.875 C16.0625 77.325 16.0625 65.775 16.0625 53.875 C13.0925 53.875 10.1225 53.875 7.0625 53.875 Z " fill="#98CD4D" transform="translate(86.9375,14.125)"/>
<path d="M0 0 C1.65322266 0.01740234 1.65322266 0.01740234 3.33984375 0.03515625 C4.99693359 0.04869141 4.99693359 0.04869141 6.6875 0.0625 C7.54214844 0.07410156 8.39679688 0.08570312 9.27734375 0.09765625 C9.27734375 1.41765625 9.27734375 2.73765625 9.27734375 4.09765625 C9.46296875 4.98453125 9.64859375 5.87140625 9.83984375 6.78515625 C9.98421875 7.54828125 10.12859375 8.31140625 10.27734375 9.09765625 C9.27734375 10.09765625 9.27734375 10.09765625 7.2109375 10.1953125 C6.38722656 10.18371094 5.56351563 10.17210938 4.71484375 10.16015625 C3.88855469 10.15113281 3.06226562 10.14210938 2.2109375 10.1328125 C1.57285156 10.12121094 0.93476562 10.10960938 0.27734375 10.09765625 C0.27734375 10.75765625 0.27734375 11.41765625 0.27734375 12.09765625 C1.26734375 12.42765625 2.25734375 12.75765625 3.27734375 13.09765625 C3.58984375 15.91015625 3.58984375 15.91015625 3.27734375 19.09765625 C0.77734375 20.97265625 0.77734375 20.97265625 -1.72265625 22.09765625 C-3.37265625 21.10765625 -5.02265625 20.11765625 -6.72265625 19.09765625 C-6.39265625 16.78765625 -6.06265625 14.47765625 -5.72265625 12.09765625 C-5.06265625 12.09765625 -4.40265625 12.09765625 -3.72265625 12.09765625 C-3.73425781 11.31519531 -3.74585938 10.53273438 -3.7578125 9.7265625 C-3.76683594 8.71464844 -3.77585938 7.70273438 -3.78515625 6.66015625 C-3.79675781 5.65082031 -3.80835938 4.64148438 -3.8203125 3.6015625 C-3.68353101 0.09448515 -3.5276627 0.12653023 0 0 Z M0.27734375 4.09765625 C0.27734375 4.75765625 0.27734375 5.41765625 0.27734375 6.09765625 C0.93734375 6.09765625 1.59734375 6.09765625 2.27734375 6.09765625 C2.27734375 5.43765625 2.27734375 4.77765625 2.27734375 4.09765625 C1.61734375 4.09765625 0.95734375 4.09765625 0.27734375 4.09765625 Z M-1.72265625 15.09765625 C-2.05265625 15.75765625 -2.38265625 16.41765625 -2.72265625 17.09765625 C-2.06265625 17.09765625 -1.40265625 17.09765625 -0.72265625 17.09765625 C-1.05265625 16.43765625 -1.38265625 15.77765625 -1.72265625 15.09765625 Z " fill="#98CD4D" transform="translate(64.72265625,74.90234375)"/>
<path d="M0 0 C3.32878632 2.46040728 4.79301948 3.89610387 5.5625 8 C4.84202557 11.8425303 3.99097304 13.45767292 1 16 C-2.77944906 16.8209459 -5.90795859 16.47601805 -9.4375 14.9375 C-11.76034026 12.05717808 -11.87213096 9.64426778 -12 6 C-11.20297288 3.31909059 -10.51275631 2.36625451 -8.25 0.75 C-5.2251326 -0.25828913 -3.17387527 -0.45341075 0 0 Z M-5 4 C-7.26839983 5.83265325 -7.26839983 5.83265325 -7.1875 8.5625 C-7.27003323 10.94689723 -7.27003323 10.94689723 -6 12 C-3.54190002 12.2500773 -3.54190002 12.2500773 -1 12 C-0.34 11.34 0.32 10.68 1 10 C0.67958603 7.39719432 0.67958603 7.39719432 0 5 C-2.39719432 4.32041397 -2.39719432 4.32041397 -5 4 Z " fill="#98CD4D" transform="translate(82,19)"/>
</svg>
