<?xml version="1.0" encoding="UTF-8"?>
<svg version="1.1" xmlns="http://www.w3.org/2000/svg" width="120" height="120">
<path d="M0 0 C0.9583374 0.00523682 1.9166748 0.01047363 2.90405273 0.01586914 C4.45576172 0.02070312 4.45576172 0.02070312 6.03881836 0.02563477 C7.12743164 0.03401367 8.21604492 0.04239258 9.33764648 0.05102539 C10.97636719 0.05779297 10.97636719 0.05779297 12.64819336 0.06469727 C15.35723144 0.07652713 18.06616248 0.09300996 20.77514648 0.11352539 C20.77514648 3.08352539 20.77514648 6.05352539 20.77514648 9.11352539 C22.69327148 9.05165039 22.69327148 9.05165039 24.65014648 8.98852539 C26.82983398 8.91821289 26.82983398 8.91821289 28.77514648 9.11352539 C30.77514648 11.11352539 30.77514648 11.11352539 31.00561523 13.89868164 C30.99143555 14.98020508 30.97725586 16.06172852 30.96264648 17.17602539 C30.95620117 18.26012695 30.94975586 19.34422852 30.94311523 20.46118164 C30.77514648 23.11352539 30.77514648 23.11352539 29.77514648 24.11352539 C28.25586611 24.18532503 26.73347167 24.19744546 25.21264648 24.17602539 C24.38635742 24.16700195 23.56006836 24.15797852 22.70874023 24.14868164 C21.75161133 24.1312793 21.75161133 24.1312793 20.77514648 24.11352539 C20.77514648 25.76352539 20.77514648 27.41352539 20.77514648 29.11352539 C21.41323242 29.10192383 22.05131836 29.09032227 22.70874023 29.07836914 C23.5350293 29.0693457 24.36131836 29.06032227 25.21264648 29.05102539 C26.03635742 29.03942383 26.86006836 29.02782227 27.70874023 29.01586914 C29.77514648 29.11352539 29.77514648 29.11352539 30.77514648 30.11352539 C30.87388464 32.11152111 30.90486448 34.11309697 30.90014648 36.11352539 C30.90401367 37.75321289 30.90401367 37.75321289 30.90795898 39.42602539 C30.77514648 42.11352539 30.77514648 42.11352539 29.77514648 43.11352539 C26.67263448 43.20226674 23.59246528 43.22870994 20.48999023 43.21118164 C19.5591713 43.20976669 18.62835236 43.20835175 17.66932678 43.20689392 C14.68373457 43.20127711 11.69821619 43.18872179 8.71264648 43.17602539 C6.69376736 43.17101255 4.67488706 43.16644927 2.65600586 43.16235352 C-2.30430923 43.15130222 -7.26456884 43.13402634 -12.22485352 43.11352539 C-12.22485352 40.14352539 -12.22485352 37.17352539 -12.22485352 34.11352539 C-15.19485352 34.11352539 -18.16485352 34.11352539 -21.22485352 34.11352539 C-22.59738083 31.36847076 -22.35714607 29.11025127 -22.34985352 26.05102539 C-22.35243164 24.96692383 -22.35500977 23.88282227 -22.35766602 22.76586914 C-22.22485352 20.11352539 -22.22485352 20.11352539 -21.22485352 19.11352539 C-19.70557314 19.04172575 -18.1831787 19.02960532 -16.66235352 19.05102539 C-15.83606445 19.06004883 -15.00977539 19.06907227 -14.15844727 19.07836914 C-13.20131836 19.09577148 -13.20131836 19.09577148 -12.22485352 19.11352539 C-12.23645508 18.47543945 -12.24805664 17.83735352 -12.26000977 17.17993164 C-12.2690332 16.35364258 -12.27805664 15.52735352 -12.28735352 14.67602539 C-12.29895508 13.85231445 -12.31055664 13.02860352 -12.32250977 12.17993164 C-12.22485352 10.11352539 -12.22485352 10.11352539 -11.22485352 9.11352539 C-8.55426501 8.97237378 -5.90053114 9.07105432 -3.22485352 9.11352539 C-3.24547852 7.81415039 -3.26610352 6.51477539 -3.28735352 5.17602539 C-3.30884806 3.82186906 -3.2963355 2.46596456 -3.22485352 1.11352539 C-2.22485352 0.11352539 -2.22485352 0.11352539 0 0 Z M1.77514648 4.11352539 C1.77514648 5.76352539 1.77514648 7.41352539 1.77514648 9.11352539 C6.39514648 9.11352539 11.01514648 9.11352539 15.77514648 9.11352539 C15.77514648 7.46352539 15.77514648 5.81352539 15.77514648 4.11352539 C11.15514648 4.11352539 6.53514648 4.11352539 1.77514648 4.11352539 Z M-7.22485352 14.11352539 C-7.22485352 15.76352539 -7.22485352 17.41352539 -7.22485352 19.11352539 C-2.60485352 19.11352539 2.01514648 19.11352539 6.77514648 19.11352539 C6.77514648 17.46352539 6.77514648 15.81352539 6.77514648 14.11352539 C2.15514648 14.11352539 -2.46485352 14.11352539 -7.22485352 14.11352539 Z M11.77514648 14.11352539 C11.77514648 15.76352539 11.77514648 17.41352539 11.77514648 19.11352539 C16.39514648 19.11352539 21.01514648 19.11352539 25.77514648 19.11352539 C25.77514648 17.46352539 25.77514648 15.81352539 25.77514648 14.11352539 C21.15514648 14.11352539 16.53514648 14.11352539 11.77514648 14.11352539 Z M-17.22485352 24.11352539 C-17.22485352 25.76352539 -17.22485352 27.41352539 -17.22485352 29.11352539 C-12.60485352 29.11352539 -7.98485352 29.11352539 -3.22485352 29.11352539 C-3.22485352 27.46352539 -3.22485352 25.81352539 -3.22485352 24.11352539 C-7.84485352 24.11352539 -12.46485352 24.11352539 -17.22485352 24.11352539 Z M1.77514648 24.11352539 C1.77514648 25.76352539 1.77514648 27.41352539 1.77514648 29.11352539 C6.39514648 29.11352539 11.01514648 29.11352539 15.77514648 29.11352539 C15.77514648 27.46352539 15.77514648 25.81352539 15.77514648 24.11352539 C11.15514648 24.11352539 6.53514648 24.11352539 1.77514648 24.11352539 Z M-7.22485352 34.11352539 C-7.22485352 35.76352539 -7.22485352 37.41352539 -7.22485352 39.11352539 C-2.60485352 39.11352539 2.01514648 39.11352539 6.77514648 39.11352539 C6.77514648 37.46352539 6.77514648 35.81352539 6.77514648 34.11352539 C2.15514648 34.11352539 -2.46485352 34.11352539 -7.22485352 34.11352539 Z M11.77514648 34.11352539 C11.77514648 35.76352539 11.77514648 37.41352539 11.77514648 39.11352539 C16.39514648 39.11352539 21.01514648 39.11352539 25.77514648 39.11352539 C25.77514648 37.46352539 25.77514648 35.81352539 25.77514648 34.11352539 C21.15514648 34.11352539 16.53514648 34.11352539 11.77514648 34.11352539 Z " fill="#98CD4D" transform="translate(25.224853515625,58.886474609375)"/>
<path d="M0 0 C1.75 1.1875 1.75 1.1875 2.625 3.125 C2.75 5.1875 2.75 5.1875 0.75 8.1875 C1.15992187 8.63480469 1.56984375 9.08210938 1.9921875 9.54296875 C2.53101562 10.14753906 3.06984375 10.75210938 3.625 11.375 C4.15867187 11.96667969 4.69234375 12.55835937 5.2421875 13.16796875 C9.16715396 18.42498341 9.4708876 24.3469705 10.125 30.6875 C10.24488281 31.62464844 10.36476562 32.56179687 10.48828125 33.52734375 C11.20014787 40.40222001 11.20014787 40.40222001 8.9765625 44.28125 C4.41586327 48.18584864 -0.86753225 47.4065701 -6.5625 47.4375 C-7.50029297 47.458125 -8.43808594 47.47875 -9.40429688 47.5 C-14.76432641 47.53021863 -18.65074735 47.27867796 -23.25 44.1875 C-26.55975838 37.56798325 -23.08197968 23.14423331 -21.25 16.1875 C-20.62312152 14.83500394 -19.96782551 13.49400249 -19.25 12.1875 C-19.848125 12.105 -20.44625 12.0225 -21.0625 11.9375 C-23.95686231 10.94514721 -24.82987775 9.87825795 -26.25 7.1875 C-25.9375 4.4375 -25.9375 4.4375 -25.25 2.1875 C-23.5 2.25 -23.5 2.25 -21.25 3.1875 C-19.65498463 5.42914322 -18.50456982 7.72316643 -17.25 10.1875 C-16.59 10.1875 -15.93 10.1875 -15.25 10.1875 C-15.58 9.5275 -15.91 8.8675 -16.25 8.1875 C-16.5 5.1875 -16.5 5.1875 -16.25 2.1875 C-10.44934547 -1.67960302 -6.46660625 -2.33516337 0 0 Z M-9.25 7.1875 C-8.26 7.5175 -7.27 7.8475 -6.25 8.1875 C-5.26 6.8675 -4.27 5.5475 -3.25 4.1875 C-6.01223278 4.1875 -7.14281454 5.50175163 -9.25 7.1875 Z M-13.515625 13.75390625 C-17.77637009 17.27573834 -17.79347077 23.02046978 -18.375 28.1875 C-18.50455078 29.23550781 -18.50455078 29.23550781 -18.63671875 30.3046875 C-19.07006681 33.95031406 -19.35038328 37.51633989 -19.25 41.1875 C-15.07171361 42.58026213 -11.12575966 42.37174906 -6.75 42.375 C-5.44869141 42.39336914 -5.44869141 42.39336914 -4.12109375 42.41210938 C-2.87005859 42.41500977 -2.87005859 42.41500977 -1.59375 42.41796875 C-0.45196289 42.42413208 -0.45196289 42.42413208 0.71289062 42.43041992 C3.0622 42.3060105 3.0622 42.3060105 5.75 40.1875 C5.49385965 37.14394992 5.22064829 34.10355725 4.9375 31.0625 C4.86724609 30.2065625 4.79699219 29.350625 4.72460938 28.46875 C4.14756998 22.46754034 3.17534794 17.61284794 -1.25 13.1875 C-6.22086874 10.58371161 -8.78508383 11.39780338 -13.515625 13.75390625 Z " fill="#98CD4D" transform="translate(106.25,62.8125)"/>
<path d="M0 0 C0.89332031 0.30164062 1.78664063 0.60328125 2.70703125 0.9140625 C3.60808594 1.21054687 4.50914063 1.50703125 5.4375 1.8125 C6.12457031 2.05226562 6.81164062 2.29203125 7.51953125 2.5390625 C8.26953125 5.2265625 8.26953125 5.2265625 8.51953125 8.5390625 C6.58203125 11.4140625 6.58203125 11.4140625 4.51953125 13.5390625 C6.99453125 14.5290625 6.99453125 14.5290625 9.51953125 15.5390625 C9.18953125 16.8590625 8.85953125 18.1790625 8.51953125 19.5390625 C7.05937834 19.25664609 5.60143332 18.96279636 4.14453125 18.6640625 C2.92636719 18.42042969 2.92636719 18.42042969 1.68359375 18.171875 C-0.48046875 17.5390625 -0.48046875 17.5390625 -2.48046875 15.5390625 C-2.17717106 11.69729176 -0.95571451 9.44478578 1.51953125 6.5390625 C0.96265625 6.6834375 0.40578125 6.8278125 -0.16796875 6.9765625 C-2.5943107 7.56675378 -5.0295322 8.0624915 -7.48046875 8.5390625 C-6.98546875 8.9309375 -6.49046875 9.3228125 -5.98046875 9.7265625 C-4.02453732 12.08997965 -4.23838902 13.55341253 -4.48046875 16.5390625 C-5.02316406 16.78140625 -5.56585938 17.02375 -6.125 17.2734375 C-6.84042969 17.60859375 -7.55585937 17.94375 -8.29296875 18.2890625 C-9.35451172 18.77632812 -9.35451172 18.77632812 -10.4375 19.2734375 C-12.89973155 20.79879701 -14.03235251 22.02323071 -15.48046875 24.5390625 C-16.23401323 27.7350175 -16.23401323 27.7350175 -16.60546875 31.1640625 C-17.4019189 37.3819628 -17.4019189 37.3819628 -18.48046875 39.5390625 C-18.8729179 42.24896687 -19.22587611 44.94558953 -19.54296875 47.6640625 C-19.85234375 50.2628125 -20.16171875 52.8615625 -20.48046875 55.5390625 C-14.54046875 56.5290625 -8.60046875 57.5190625 -2.48046875 58.5390625 C-2.15046875 59.5290625 -1.82046875 60.5190625 -1.48046875 61.5390625 C-1.81046875 62.1990625 -2.14046875 62.8590625 -2.48046875 63.5390625 C-17.07771152 64.00246703 -17.07771152 64.00246703 -23.25390625 59.53125 C-26.36969414 55.34406837 -25.88491754 52.37731499 -25.35546875 47.3515625 C-25.29359375 46.53236328 -25.23171875 45.71316406 -25.16796875 44.86914062 C-24.67978371 38.93769243 -24.67978371 38.93769243 -23.48046875 36.5390625 C-23.18951003 34.47930524 -22.92218475 32.41617655 -22.66796875 30.3515625 C-21.60723262 23.28518798 -20.20202144 18.95134784 -14.73046875 14.1015625 C-13.98796875 13.5859375 -13.24546875 13.0703125 -12.48046875 12.5390625 C-13.14046875 12.2090625 -13.80046875 11.8790625 -14.48046875 11.5390625 C-14.73046875 8.2265625 -14.73046875 8.2265625 -14.48046875 4.5390625 C-12.79296875 2.6015625 -12.79296875 2.6015625 -10.48046875 1.5390625 C-8.8142976 1.49842418 -7.1465878 1.4963415 -5.48046875 1.5390625 C-2.48046875 -0.4609375 -2.48046875 -0.4609375 0 0 Z " fill="#98CD4D" transform="translate(82.48046875,44.4609375)"/>
<path d="M0 0 C1.32 0 2.64 0 4 0 C5.640625 2.1875 5.640625 2.1875 7.25 5 C9.42040676 8.71451055 9.42040676 8.71451055 13.0546875 10.453125 C14.07949219 10.35257813 14.07949219 10.35257813 15.125 10.25 C19 10 19 10 20.6171875 11.296875 C22 13 22 13 24 16 C24.67095703 15.33291016 24.67095703 15.33291016 25.35546875 14.65234375 C25.96003906 14.08644531 26.56460938 13.52054688 27.1875 12.9375 C28.07501953 12.08478516 28.07501953 12.08478516 28.98046875 11.21484375 C31 10 31 10 36 11 C36 16.28 36 21.56 36 27 C34.68 27.33 33.36 27.66 32 28 C29.95301586 25.95301586 30.29954307 21.69588759 30 19 C28.35 20.65 26.7 22.3 25 24 C21.77097561 22.80406504 20.82924513 21.76284046 18.75 18.875 C16.42660856 15.84074047 16.42660856 15.84074047 14.0078125 15.75 C13.30398437 15.79125 12.60015625 15.8325 11.875 15.875 C9.956875 15.936875 9.956875 15.936875 8 16 C7.01 14.68 6.02 13.36 5 12 C4.67 22.89 4.34 33.78 4 45 C2.515 45.495 2.515 45.495 1 46 C-1 44 -1 44 -1.24723816 42.1337738 C-1.24581314 41.37734085 -1.24438812 40.6209079 -1.24291992 39.84155273 C-1.24599655 38.98403915 -1.24907318 38.12652557 -1.25224304 37.24302673 C-1.24505753 36.31591385 -1.23787201 35.38880096 -1.23046875 34.43359375 C-1.23001053 33.48436539 -1.22955231 32.53513702 -1.2290802 31.55714417 C-1.22605638 29.54890697 -1.21816624 27.54067216 -1.20581055 25.5324707 C-1.18755439 22.44669351 -1.18530082 19.36121617 -1.18554688 16.27539062 C-1.18063183 14.32812239 -1.17480357 12.3808562 -1.16796875 10.43359375 C-1.16685593 9.50445663 -1.1657431 8.57531952 -1.16459656 7.61802673 C-1.15821671 6.76366531 -1.15183685 5.90930389 -1.14526367 5.02905273 C-1.14145187 4.27341537 -1.13764008 3.51777802 -1.13371277 2.73924255 C-1 1 -1 1 0 0 Z " fill="#98CD4D" transform="translate(23,10)"/>
<path d="M0 0 C0 8.58 0 17.16 0 26 C-1.32 26 -2.64 26 -4 26 C-5.41634833 23.16730334 -5.3463005 20.52533562 -5.5625 17.375 C-5.64628906 16.18648437 -5.73007812 14.99796875 -5.81640625 13.7734375 C-5.87699219 12.85820313 -5.93757813 11.94296875 -6 11 C-6.66 11.66 -7.32 12.32 -8 13 C-12 13 -12 13 -14.25 11 C-14.8275 10.34 -15.405 9.68 -16 9 C-16.99 9.66 -17.98 10.32 -19 11 C-22.1875 11.125 -22.1875 11.125 -25 11 C-25 13.64 -25 16.28 -25 19 C-26.9375 19.5625 -26.9375 19.5625 -29 20 C-30 19 -30 19 -30.09765625 16.05859375 C-30.08605469 14.86363281 -30.07445312 13.66867188 -30.0625 12.4375 C-30.05347656 11.23996094 -30.04445312 10.04242188 -30.03515625 8.80859375 C-30.02355469 7.88175781 -30.01195312 6.95492187 -30 6 C-27.45083515 5.28579433 -25.69394137 5.01275244 -23 5.125 C-19.60751544 4.98364648 -18.45008851 4.26162017 -16 2 C-13.53199953 3.15173355 -11.95216435 4.04783565 -10 6 C-9.61328125 5.566875 -9.2265625 5.13375 -8.828125 4.6875 C-8.30734375 4.130625 -7.7865625 3.57375 -7.25 3 C-6.73953125 2.443125 -6.2290625 1.88625 -5.703125 1.3125 C-4 0 -4 0 0 0 Z " fill="#98CD4D" transform="translate(64,36)"/>
<path d="M0 0 C3.55811578 0.34988138 4.29679193 0.74115574 7 3.3125 C8.76798635 7.69403139 8.80981148 11.22110648 8.4375 15.875 C7.1175 15.875 5.7975 15.875 4.4375 15.875 C4.24414062 15.24851562 4.05078125 14.62203125 3.8515625 13.9765625 C3.59117188 13.15929687 3.33078125 12.34203125 3.0625 11.5 C2.80726562 10.68789062 2.55203125 9.87578125 2.2890625 9.0390625 C1.53895717 6.71040815 1.53895717 6.71040815 -0.5625 4.875 C-3.13234833 8.72977249 -4.42064266 12.39540582 -5.5625 16.875 C-6.8825 16.545 -8.2025 16.215 -9.5625 15.875 C-10.12224487 10.50144922 -9.33357693 6.94178561 -6.2578125 2.43359375 C-4.1355633 0.48249368 -2.85781307 0.19335039 0 0 Z " fill="#98CD4D" transform="translate(99.5625,77.125)"/>
<path d="M0 0 C2.0625 0.4375 2.0625 0.4375 4 1 C3.5838117 3.9133181 3.08471884 5.86586184 1.5 8.375 C-0.24768999 11.03696866 -0.24768999 11.03696866 -0.4375 14.6875 C-0.623125 15.780625 -0.80875 16.87375 -1 18 C-3.0625 19.4375 -3.0625 19.4375 -5 20 C-6.52087847 18.47912153 -6.27932338 17.11960515 -6.375 15 C-6.34812855 9.4107383 -3.99466366 3.99466366 0 0 Z " fill="#98CD4D" transform="translate(75,65)"/>
</svg>
