<?xml version="1.0" encoding="UTF-8"?>
<svg version="1.1" xmlns="http://www.w3.org/2000/svg" width="120" height="120">
<path d="M0 0 C3.06870029 1.99344704 4.88456322 4.30868449 6.984375 7.2890625 C7.603125 6.70898438 7.603125 6.70898438 8.234375 6.1171875 C14.74882489 0.24254965 20.50344035 -3.49964273 29.52734375 -3.09765625 C35.992623 -2.08006858 40.82994263 1.30374366 44.984375 6.2890625 C49.72816416 14.25185144 49.07629242 22.28115501 48.984375 31.2890625 C53.934375 31.2890625 58.884375 31.2890625 63.984375 31.2890625 C63.984375 32.9390625 63.984375 34.5890625 63.984375 36.2890625 C48.804375 36.2890625 33.624375 36.2890625 17.984375 36.2890625 C18.314375 45.1990625 18.644375 54.1090625 18.984375 63.2890625 C25.45974673 66.5943309 25.45974673 66.5943309 31.984375 65.2890625 C32.850625 64.5878125 33.716875 63.8865625 34.609375 63.1640625 C36.984375 61.2890625 36.984375 61.2890625 39.609375 61.3515625 C41.984375 62.2890625 41.984375 62.2890625 43.296875 63.7890625 C46.07471362 66.25825239 49.40611695 66.41733968 52.984375 66.2890625 C57.32251436 64.7571261 57.32251436 64.7571261 59.984375 61.2890625 C61.304375 61.2890625 62.624375 61.2890625 63.984375 61.2890625 C63.80862009 65.15567056 63.40801426 66.85397353 60.671875 69.6640625 C55.9979477 72.37539411 50.17701651 72.06481379 44.984375 71.2890625 C43.30478678 70.3109208 41.63573525 69.31414157 39.984375 68.2890625 C37.2839711 68.93569817 37.2839711 68.93569817 34.984375 70.2890625 C30.84090038 72.36079981 25.50804278 71.66257635 20.984375 71.2890625 C18.9771292 70.30368729 16.97457247 69.30843193 14.984375 68.2890625 C14.23027344 68.74925781 13.47617188 69.20945312 12.69921875 69.68359375 C9.52418281 71.56120493 7.64176766 71.69205275 3.984375 71.6640625 C2.97375 71.67179687 1.963125 71.67953125 0.921875 71.6875 C-2.38164743 71.23941584 -4.2298751 70.05000285 -7.015625 68.2890625 C-9.23296614 68.9392617 -9.23296614 68.9392617 -11.015625 70.2890625 C-13.69218301 71.62734151 -15.83996552 71.49484806 -18.828125 71.5390625 C-20.38466797 71.57773438 -20.38466797 71.57773438 -21.97265625 71.6171875 C-25.39094043 71.24859203 -27.14533066 70.09464937 -30.015625 68.2890625 C-32.44590572 68.95186633 -34.2167222 69.4901597 -36.015625 71.2890625 C-41.50244471 71.81697418 -47.17067656 72.19604596 -52.203125 69.6640625 C-55.015625 67.2890625 -55.015625 67.2890625 -55.953125 64.0390625 C-55.97375 63.1315625 -55.994375 62.2240625 -56.015625 61.2890625 C-52.96540667 61.77709743 -51.38108259 62.69612744 -48.703125 64.4140625 C-45.7789816 66.13968361 -44.94551469 66.28787419 -41.328125 66.2265625 C-37.95961369 65.27321024 -36.41097658 64.7912132 -34.015625 62.2890625 C-33.55780598 59.60377786 -33.32090196 57.29254536 -33.265625 54.6015625 C-33.22115234 53.5487207 -33.22115234 53.5487207 -33.17578125 52.47460938 C-33.10525467 50.74670826 -33.05815432 49.0178793 -33.015625 47.2890625 C-31.695625 47.2890625 -30.375625 47.2890625 -29.015625 47.2890625 C-28.94214844 48.87847656 -28.94214844 48.87847656 -28.8671875 50.5 C-28.79215791 51.88804747 -28.71661015 53.27606701 -28.640625 54.6640625 C-28.6096875 55.36273438 -28.57875 56.06140625 -28.546875 56.78125 C-28.42063002 60.99092077 -28.42063002 60.99092077 -26.015625 64.2890625 C-26.01197937 63.67598236 -26.00833374 63.06290222 -26.00457764 62.4312439 C-25.96270547 56.03922884 -25.89332655 49.64792866 -25.80810547 43.25634766 C-25.77991305 40.87230587 -25.75868997 38.48817092 -25.74462891 36.10400391 C-25.72317631 32.67301798 -25.67651136 29.24315026 -25.625 25.8125 C-25.62377136 24.74977875 -25.62254272 23.6870575 -25.62127686 22.59213257 C-25.50165431 16.52211295 -25.06935628 12.91046679 -21.015625 8.2890625 C-17.57393253 5.42098544 -14.56804897 4.74602233 -10.07421875 4.94140625 C-6.29800682 5.57913464 -4.10811314 6.98485565 -1.015625 9.2890625 C2.12681814 14.17730738 2.36942109 18.0618579 2.171875 23.6640625 C2.15157227 24.76814453 2.15157227 24.76814453 2.13085938 25.89453125 C2.09582369 27.69302993 2.04202788 29.49114672 1.984375 31.2890625 C2.974375 31.2890625 3.964375 31.2890625 4.984375 31.2890625 C4.89686504 28.57927126 4.78992607 25.87255502 4.671875 23.1640625 C4.63803711 22.02324219 4.63803711 22.02324219 4.60351562 20.859375 C4.3131455 14.73520507 3.14512408 10.28775539 -1.515625 5.9765625 C-6.38229542 2.69155997 -11.32109175 2.65831077 -17.015625 3.2890625 C-21.90041296 5.64099745 -24.37624443 8.59683037 -27.015625 13.2890625 C-28.12885066 16.69880913 -28.21413499 20.01536508 -28.33203125 23.5859375 C-28.37392578 24.79121094 -28.41582031 25.99648438 -28.45898438 27.23828125 C-28.49830078 28.49253906 -28.53761719 29.74679688 -28.578125 31.0390625 C-28.62130859 32.30878906 -28.66449219 33.57851563 -28.70898438 34.88671875 C-28.81502222 38.02072615 -28.91708558 41.15481183 -29.015625 44.2890625 C-30.335625 44.2890625 -31.655625 44.2890625 -33.015625 44.2890625 C-33.015625 41.6490625 -33.015625 39.0090625 -33.015625 36.2890625 C-40.275625 36.2890625 -47.535625 36.2890625 -55.015625 36.2890625 C-55.345625 34.6390625 -55.675625 32.9890625 -56.015625 31.2890625 C-48.425625 31.2890625 -40.835625 31.2890625 -33.015625 31.2890625 C-33.21182282 25.39526191 -33.21182282 25.39526191 -33.46606445 19.50390625 C-33.5709161 13.1938666 -32.01284174 9.16800779 -28.015625 4.2890625 C-20.0582523 -3.92440653 -10.12697004 -4.99166254 0 0 Z M-20.015625 15.2890625 C-21.15640157 18.71139222 -21.11377617 21.37579467 -21.078125 24.9765625 C-21.0575 27.0596875 -21.036875 29.1428125 -21.015625 31.2890625 C-15.075625 31.2890625 -9.135625 31.2890625 -3.015625 31.2890625 C-2.9125 28.7521875 -2.809375 26.2153125 -2.703125 23.6015625 C-2.65760498 22.81177002 -2.61208496 22.02197754 -2.56518555 21.20825195 C-2.48527378 17.13068959 -2.72448071 15.66621546 -5.31640625 12.30859375 C-7.93698543 10.03284333 -7.93698543 10.03284333 -11.515625 9.6640625 C-15.87863849 10.44317205 -17.30030259 11.85497828 -20.015625 15.2890625 Z M12.609375 9.3515625 C10.48155036 13.19801473 9.8599568 15.89503699 9.87084961 20.21948242 C9.87092514 21.22029343 9.87100067 22.22110443 9.87107849 23.25224304 C9.87623978 24.33044815 9.88140106 25.40865326 9.88671875 26.51953125 C9.8881337 27.62508865 9.88954865 28.73064606 9.89100647 29.8697052 C9.89660986 33.40535167 9.90916296 36.94093512 9.921875 40.4765625 C9.92688956 42.87174388 9.93145254 45.26692625 9.93554688 47.66210938 C9.94658039 53.53778197 9.96332184 59.41341773 9.984375 65.2890625 C10.974375 64.6290625 11.964375 63.9690625 12.984375 63.2890625 C13.43863931 61.28629502 13.43863931 61.28629502 13.36914062 58.95043945 C13.37925171 58.05222977 13.38936279 57.15402008 13.39978027 56.22859192 C13.39675903 55.25468002 13.39373779 54.28076813 13.390625 53.27734375 C13.40146118 52.27575729 13.41229736 51.27417084 13.42346191 50.24223328 C13.45783237 47.02861135 13.47333025 43.8153443 13.484375 40.6015625 C13.49897226 36.38898263 13.53276815 32.17719231 13.578125 27.96484375 C13.57510376 27.00105301 13.57208252 26.03726227 13.56896973 25.04426575 C13.63187117 19.35842007 14.22673774 15.30060096 16.984375 10.2890625 C20.21528444 7.35870277 22.73907742 6.04663258 27.046875 5.8515625 C31.90572574 6.3914348 34.21758234 7.64846931 37.734375 10.9140625 C39.63496715 14.52518759 39.73473713 18.26042383 39.984375 22.2890625 C38.994375 22.2890625 38.004375 22.2890625 36.984375 22.2890625 C36.736875 21.0515625 36.489375 19.8140625 36.234375 18.5390625 C35.26351049 14.76273432 34.37514135 12.48847851 30.984375 10.2890625 C26.72294068 9.66921751 24.74049178 9.79594286 21.109375 12.1640625 C18.2719825 15.001455 18.00135008 15.68474951 17.88671875 19.765625 C17.89243606 21.14847534 17.90541699 22.53129829 17.921875 23.9140625 C17.9425 26.3478125 17.963125 28.7815625 17.984375 31.2890625 C23.924375 31.2890625 29.864375 31.2890625 35.984375 31.2890625 C35.984375 29.6390625 35.984375 27.9890625 35.984375 26.2890625 C37.304375 26.6190625 38.624375 26.9490625 39.984375 27.2890625 C40.314375 28.6090625 40.644375 29.9290625 40.984375 31.2890625 C41.974375 31.2890625 42.964375 31.2890625 43.984375 31.2890625 C45.07227014 18.48583896 45.07227014 18.48583896 39.984375 7.2890625 C36.04788786 3.61561252 32.30770491 1.98068842 26.921875 1.7265625 C20.49693662 2.09172797 16.62008628 4.17985585 12.609375 9.3515625 Z M-21.015625 36.2890625 C-21.015625 38.5990625 -21.015625 40.9090625 -21.015625 43.2890625 C-12.435625 43.2890625 -3.855625 43.2890625 4.984375 43.2890625 C4.984375 40.9790625 4.984375 38.6690625 4.984375 36.2890625 C-3.595625 36.2890625 -12.175625 36.2890625 -21.015625 36.2890625 Z M-21.015625 48.2890625 C-21.015625 49.6090625 -21.015625 50.9290625 -21.015625 52.2890625 C-12.435625 52.2890625 -3.855625 52.2890625 4.984375 52.2890625 C4.984375 50.9690625 4.984375 49.6490625 4.984375 48.2890625 C-3.595625 48.2890625 -12.175625 48.2890625 -21.015625 48.2890625 Z M-21.015625 56.2890625 C-21.015625 59.9190625 -21.015625 63.5490625 -21.015625 67.2890625 C-15.57411945 66.86227775 -13.1831931 65.66817177 -9.015625 62.2890625 C-6.31879541 62.37078461 -5.23925253 63.11016048 -3.140625 64.7890625 C-0.47957926 66.66744773 1.78421614 66.92540808 4.984375 67.2890625 C4.984375 63.6590625 4.984375 60.0290625 4.984375 56.2890625 C-3.595625 56.2890625 -12.175625 56.2890625 -21.015625 56.2890625 Z " fill="#98CD4D" transform="translate(56.015625,14.7109375)"/>
<path d="M0 0 C2.24400681 1.08044772 4.22369394 2.16155673 6.25 3.625 C9.8549787 5.42748935 13.0909335 5.86782812 17 5 C18.73987706 3.87587337 18.73987706 3.87587337 20.25 2.4375 C21.1575 1.633125 22.065 0.82875 23 0 C25.375 0.1875 25.375 0.1875 27 1 C27 1.66 27 2.32 27 3 C31.35624282 5.17812141 35.22716951 5.50037739 40 5 C42.88214887 4.11785113 42.88214887 4.11785113 45 3 C45 2.34 45 1.68 45 1 C46.32 0.67 47.64 0.34 49 0 C49.495 1.98 49.495 1.98 50 4 C48.90081184 4.98475214 47.7954398 5.96260473 46.6875 6.9375 C46.07261719 7.48277344 45.45773438 8.02804688 44.82421875 8.58984375 C41.02169903 11.52926478 36.61351331 11.53502721 32 11 C29.99218823 10.01577854 27.99107248 9.01765927 26 8 C23.26662745 8.1952409 21.51539693 8.71653169 19.125 10.03125 C15.51589627 11.6765767 11.8879907 11.47580306 8 11 C6 10 4 9 2 8 C-1.77376551 8.21615256 -1.77376551 8.21615256 -5 9 C-5.33 7.68 -5.66 6.36 -6 5 C-4.02 3.35 -2.04 1.7 0 0 Z " fill="#98CD4D" transform="translate(59,97)"/>
<path d="M0 0 C1.98 0.495 1.98 0.495 4 1 C4 1.66 4 2.32 4 3 C8.35624282 5.17812141 12.22716951 5.50037739 17 5 C19.88214887 4.11785113 19.88214887 4.11785113 22 3 C22 2.34 22 1.68 22 1 C23.625 0.1875 23.625 0.1875 26 0 C27.47151831 1.20991506 28.93834985 2.42837198 30.33984375 3.71875 C33.01537457 5.78363026 35.72842684 6.28025391 39 7 C38.67 8.32 38.34 9.64 38 11 C33.03799785 11.35442873 30.37987312 10.18993656 26 8 C23.6098714 8.2108937 22.23888563 8.86638601 20.15625 10.03125 C15.43140987 12.15400426 10.4191327 11.53552177 5.6875 9.75 C3.01353748 8.0088151 0.93067351 6.54848904 -1 4 C-0.75 1.75 -0.75 1.75 0 0 Z " fill="#98CD4D" transform="translate(12,97)"/>
</svg>
