<?xml version="1.0" encoding="UTF-8"?>
<svg version="1.1" xmlns="http://www.w3.org/2000/svg" width="120" height="120">
<path d="M0 0 C1.084021 0.00523682 2.16804199 0.01047363 3.28491211 0.01586914 C4.33815674 0.0183667 5.39140137 0.02086426 6.4765625 0.0234375 C7.82484131 0.0325415 9.17312012 0.04164551 10.56225586 0.05102539 C14.83163086 0.07165039 19.10100586 0.09227539 23.49975586 0.11352539 C23.49975586 14.96352539 23.49975586 29.81352539 23.49975586 45.11352539 C26.46975586 45.11352539 29.43975586 45.11352539 32.49975586 45.11352539 C32.78850586 44.32977539 33.07725586 43.54602539 33.37475586 42.73852539 C34.49975586 40.11352539 34.49975586 40.11352539 36.49975586 38.11352539 C40.12475586 37.98852539 40.12475586 37.98852539 43.49975586 38.11352539 C43.49975586 37.12352539 43.49975586 36.13352539 43.49975586 35.11352539 C42.35635742 35.12512695 41.21295898 35.13672852 40.03491211 35.14868164 C38.54402832 35.15805827 37.05314277 35.1671586 35.56225586 35.17602539 C34.80750977 35.1844043 34.05276367 35.1927832 33.27514648 35.20141602 C31.34981273 35.2100498 29.42440005 35.16576872 27.49975586 35.11352539 C25.79482705 33.40859658 26.37171166 31.26818279 26.36080933 28.99450684 C26.36283356 28.28097046 26.36485779 27.56743408 26.36694336 26.83227539 C26.36598663 26.10359253 26.36502991 25.37490967 26.36404419 24.62414551 C26.3633625 23.08072829 26.36521598 21.53730822 26.36938477 19.99389648 C26.37473324 17.62355139 26.36943944 15.2533958 26.36303711 12.88305664 C26.36369789 11.38696247 26.36497906 9.89086842 26.36694336 8.39477539 C26.36491913 7.68123901 26.3628949 6.96770264 26.36080933 6.23254395 C26.38480395 1.2284773 26.38480395 1.2284773 27.49975586 0.11352539 C28.87585468 0.01557228 30.25689468 -0.01445549 31.63647461 -0.01586914 C32.51408447 -0.0190213 33.39169434 -0.02217346 34.29589844 -0.02542114 C35.25004639 -0.02339691 36.20419434 -0.02137268 37.18725586 -0.01928711 C38.16009521 -0.02024384 39.13293457 -0.02120056 40.13525391 -0.02218628 C42.19653386 -0.02286819 44.25781594 -0.02101313 46.3190918 -0.0168457 C49.48613274 -0.01149761 52.65303186 -0.01679033 55.82006836 -0.02319336 C57.81746451 -0.02253258 59.81486057 -0.02125142 61.81225586 -0.01928711 C62.76640381 -0.02131134 63.72055176 -0.02333557 64.70361328 -0.02542114 C66.02002808 -0.0206929 66.02002808 -0.0206929 67.36303711 -0.01586914 C68.13945557 -0.01507355 68.91587402 -0.01427795 69.71582031 -0.01345825 C71.49975586 0.11352539 71.49975586 0.11352539 72.49975586 1.11352539 C72.6005835 3.55012985 72.63948189 5.9577724 72.63256836 8.39477539 C72.63352509 9.12345825 72.63448181 9.85214111 72.63546753 10.60290527 C72.63614921 12.14632249 72.63429574 13.68974256 72.63012695 15.2331543 C72.62477848 17.60349939 72.63007228 19.97365498 72.63647461 22.34399414 C72.63581383 23.84008831 72.63453266 25.33618236 72.63256836 26.83227539 C72.63459259 27.54581177 72.63661682 28.25934814 72.63870239 28.99450684 C72.61470777 33.99857348 72.61470777 33.99857348 71.49975586 35.11352539 C68.80320732 35.1867216 66.13284128 35.20595076 63.43725586 35.17602539 C62.29933594 35.16925781 62.29933594 35.16925781 61.13842773 35.16235352 C59.25883715 35.15053219 57.37928687 35.13259617 55.49975586 35.11352539 C55.49975586 36.10352539 55.49975586 37.09352539 55.49975586 38.11352539 C56.83006836 37.95883789 56.83006836 37.95883789 58.18725586 37.80102539 C61.49975586 38.11352539 61.49975586 38.11352539 64.37475586 40.48852539 C66.49975586 43.11352539 66.49975586 43.11352539 66.49975586 45.11352539 C70.78975586 44.78352539 75.07975586 44.45352539 79.49975586 44.11352539 C79.49975586 39.82352539 79.49975586 35.53352539 79.49975586 31.11352539 C78.17975586 30.78352539 76.85975586 30.45352539 75.49975586 30.11352539 C75.82975586 28.79352539 76.15975586 27.47352539 76.49975586 26.11352539 C77.48975586 26.11352539 78.47975586 26.11352539 79.49975586 26.11352539 C79.00475586 24.99977539 79.00475586 24.99977539 78.49975586 23.86352539 C77.49975586 21.11352539 77.49975586 21.11352539 77.49975586 17.11352539 C80.52395111 17.70156336 83.51734039 18.34030657 86.49975586 19.11352539 C86.82975586 17.79352539 87.15975586 16.47352539 87.49975586 15.11352539 C89.43725586 15.42602539 89.43725586 15.42602539 91.49975586 16.11352539 C91.99475586 17.59852539 91.99475586 17.59852539 92.49975586 19.11352539 C93.07725586 18.78352539 93.65475586 18.45352539 94.24975586 18.11352539 C96.49975586 17.11352539 96.49975586 17.11352539 100.49975586 17.11352539 C99.9770712 19.87628716 99.39105999 22.43961299 98.49975586 25.11352539 C99.81975586 25.77352539 101.13975586 26.43352539 102.49975586 27.11352539 C102.16975586 28.43352539 101.83975586 29.75352539 101.49975586 31.11352539 C100.50975586 31.11352539 99.51975586 31.11352539 98.49975586 31.11352539 C98.51135742 31.78899414 98.52295898 32.46446289 98.53491211 33.16040039 C98.54393555 34.05243164 98.55295898 34.94446289 98.56225586 35.86352539 C98.57385742 36.74524414 98.58545898 37.62696289 98.59741211 38.53540039 C98.50801784 40.89540919 98.16888407 42.85851063 97.49975586 45.11352539 C98.79913086 45.09290039 100.09850586 45.07227539 101.43725586 45.05102539 C102.79141219 45.02953085 104.14731669 45.0420434 105.49975586 45.11352539 C106.49975586 46.11352539 106.49975586 46.11352539 106.61328125 48.24658203 C106.60542603 49.62124634 106.60542603 49.62124634 106.59741211 51.02368164 C106.59257812 52.50771484 106.59257812 52.50771484 106.58764648 54.02172852 C106.57507813 55.58310547 106.57507813 55.58310547 106.56225586 57.17602539 C106.55774414 58.22081055 106.55323242 59.2655957 106.54858398 60.34204102 C106.53675498 62.93259199 106.52027275 65.52303098 106.49975586 68.11352539 C105.17975586 68.11352539 103.85975586 68.11352539 102.49975586 68.11352539 C102.50499268 69.22912842 102.51022949 70.34473145 102.515625 71.49414062 C102.53367361 75.61831872 102.54518735 79.7424933 102.5546875 83.86669922 C102.55972804 85.6544656 102.5665604 87.44222784 102.57519531 89.22998047 C102.58727316 91.79403707 102.5929868 94.35803936 102.59741211 96.92211914 C102.60257339 97.72628769 102.60773468 98.53045624 102.61305237 99.35899353 C102.61324801 101.27754254 102.56177569 103.19597907 102.49975586 105.11352539 C101.49975586 106.11352539 101.49975586 106.11352539 99.24975586 106.24633789 C98.34225586 106.24375977 97.43475586 106.24118164 96.49975586 106.23852539 C95.13850586 106.24239258 95.13850586 106.24239258 93.74975586 106.24633789 C91.49975586 106.11352539 91.49975586 106.11352539 90.49975586 105.11352539 C90.4111694 102.37458454 90.38452107 99.66099269 90.40209961 96.92211914 C90.40351456 96.10228043 90.4049295 95.28244171 90.40638733 94.4377594 C90.41200297 91.80881157 90.42455807 89.17994766 90.43725586 86.55102539 C90.44226885 84.77303183 90.4468321 82.99503693 90.45092773 81.21704102 C90.46197747 76.84916994 90.47925255 72.48136191 90.49975586 68.11352539 C89.17975586 68.11352539 87.85975586 68.11352539 86.49975586 68.11352539 C86.49975586 65.80352539 86.49975586 63.49352539 86.49975586 61.11352539 C67.02975586 61.11352539 47.55975586 61.11352539 27.49975586 61.11352539 C27.53936248 75.54896876 27.53936248 75.54896876 27.58984375 89.984375 C27.59276281 91.78653912 27.59531139 93.58870389 27.59741211 95.39086914 C27.60252808 96.33579224 27.60764404 97.28071533 27.61291504 98.25427246 C27.61309631 99.59407166 27.61309631 99.59407166 27.61328125 100.9609375 C27.61550186 101.74037216 27.61772247 102.51980682 27.62001038 103.32286072 C27.49975586 105.11352539 27.49975586 105.11352539 26.49975586 106.11352539 C24.36622412 106.21355828 22.22938044 106.24433587 20.09350586 106.24633789 C18.7928418 106.24762695 17.49217773 106.24891602 16.15209961 106.25024414 C15.47131348 106.24814941 14.79052734 106.24605469 14.08911133 106.24389648 C12.00847071 106.23854779 9.92804597 106.24384219 7.84741211 106.25024414 C5.89641602 106.24831055 5.89641602 106.24831055 3.90600586 106.24633789 C2.70266602 106.24520996 1.49932617 106.24408203 0.25952148 106.24291992 C-2.50024414 106.11352539 -2.50024414 106.11352539 -3.50024414 105.11352539 C-3.59302744 103.73192424 -3.61771457 102.34564502 -3.61376953 100.9609375 C-3.613694 100.08009995 -3.61361847 99.19926239 -3.61354065 98.29173279 C-3.60579872 96.85580528 -3.60579872 96.85580528 -3.59790039 95.39086914 C-3.59648544 94.41565811 -3.5950705 93.44044708 -3.59361267 92.4356842 C-3.58799547 89.30743396 -3.57544007 86.17925416 -3.56274414 83.05102539 C-3.55773136 80.93579205 -3.55316807 78.82055758 -3.54907227 76.70532227 C-3.53802045 71.50803243 -3.5212656 66.31078394 -3.50024414 61.11352539 C-4.82024414 60.78352539 -6.14024414 60.45352539 -7.50024414 60.11352539 C-7.50024414 55.49352539 -7.50024414 50.87352539 -7.50024414 46.11352539 C-5.52024414 45.61852539 -5.52024414 45.61852539 -3.50024414 45.11352539 C-3.50246475 44.56451065 -3.50468536 44.01549591 -3.50697327 43.44984436 C-3.52902772 37.7564458 -3.5441514 32.06305929 -3.55517578 26.36962891 C-3.56021712 24.24234525 -3.56705005 22.11506508 -3.57568359 19.98779297 C-3.58775793 16.93724713 -3.59347428 13.88674694 -3.59790039 10.83618164 C-3.60306168 9.87889664 -3.60822296 8.92161163 -3.61354065 7.93531799 C-3.61361618 7.05448044 -3.61369171 6.17364288 -3.61376953 5.26611328 C-3.61599014 4.48667862 -3.61821075 3.70724396 -3.62049866 2.90419006 C-3.42798301 0.03751216 -2.87387557 0.1304904 0 0 Z M1.49975586 5.11352539 C1.49975586 18.31352539 1.49975586 31.51352539 1.49975586 45.11352539 C7.43975586 45.11352539 13.37975586 45.11352539 19.49975586 45.11352539 C19.49975586 31.91352539 19.49975586 18.71352539 19.49975586 5.11352539 C13.55975586 5.11352539 7.61975586 5.11352539 1.49975586 5.11352539 Z M31.49975586 5.11352539 C31.49975586 11.05352539 31.49975586 16.99352539 31.49975586 23.11352539 C43.37975586 23.11352539 55.25975586 23.11352539 67.49975586 23.11352539 C67.49975586 17.17352539 67.49975586 11.23352539 67.49975586 5.11352539 C55.61975586 5.11352539 43.73975586 5.11352539 31.49975586 5.11352539 Z M84.68725586 25.17602539 C82.89133448 28.1062129 83.30998012 30.76082069 83.49975586 34.11352539 C87.12975586 34.11352539 90.75975586 34.11352539 94.49975586 34.11352539 C94.37600586 32.83477539 94.25225586 31.55602539 94.12475586 30.23852539 C94.05514648 29.51922852 93.98553711 28.79993164 93.91381836 28.05883789 C93.63600837 25.88684294 93.63600837 25.88684294 91.49975586 24.11352539 C88.72518482 23.75781115 87.1207879 23.74947212 84.68725586 25.17602539 Z M31.49975586 27.11352539 C31.49975586 28.10352539 31.49975586 29.09352539 31.49975586 30.11352539 C43.37975586 30.11352539 55.25975586 30.11352539 67.49975586 30.11352539 C67.49975586 29.12352539 67.49975586 28.13352539 67.49975586 27.11352539 C55.61975586 27.11352539 43.73975586 27.11352539 31.49975586 27.11352539 Z M48.49975586 35.11352539 C48.49975586 36.10352539 48.49975586 37.09352539 48.49975586 38.11352539 C49.15975586 38.11352539 49.81975586 38.11352539 50.49975586 38.11352539 C50.49975586 37.12352539 50.49975586 36.13352539 50.49975586 35.11352539 C49.83975586 35.11352539 49.17975586 35.11352539 48.49975586 35.11352539 Z M84.49975586 38.11352539 C84.82975586 40.42352539 85.15975586 42.73352539 85.49975586 45.11352539 C87.80975586 45.11352539 90.11975586 45.11352539 92.49975586 45.11352539 C92.82975586 42.80352539 93.15975586 40.49352539 93.49975586 38.11352539 C90.52975586 38.11352539 87.55975586 38.11352539 84.49975586 38.11352539 Z M38.49975586 45.11352539 C46.08975586 45.11352539 53.67975586 45.11352539 61.49975586 45.11352539 C58.35233779 41.86750698 58.35233779 41.86750698 54.33959961 41.71508789 C53.14947266 41.70928711 53.14947266 41.70928711 51.93530273 41.70336914 C51.11094727 41.7149707 50.2865918 41.72657227 49.43725586 41.73852539 C48.6090332 41.72692383 47.78081055 41.71532227 46.92749023 41.70336914 C46.13536133 41.70723633 45.34323242 41.71110352 44.52709961 41.71508789 C43.80256592 41.71847168 43.07803223 41.72185547 42.33154297 41.7253418 C40.08499532 41.97843965 40.08499532 41.97843965 38.49975586 45.11352539 Z M-2.50024414 50.11352539 C-2.50024414 52.09352539 -2.50024414 54.07352539 -2.50024414 56.11352539 C31.81975586 56.11352539 66.13975586 56.11352539 101.49975586 56.11352539 C101.49975586 54.13352539 101.49975586 52.15352539 101.49975586 50.11352539 C67.17975586 50.11352539 32.85975586 50.11352539 -2.50024414 50.11352539 Z M1.49975586 61.11352539 C1.49975586 64.41352539 1.49975586 67.71352539 1.49975586 71.11352539 C8.42975586 71.11352539 15.35975586 71.11352539 22.49975586 71.11352539 C22.49975586 67.81352539 22.49975586 64.51352539 22.49975586 61.11352539 C15.56975586 61.11352539 8.63975586 61.11352539 1.49975586 61.11352539 Z M91.49975586 61.11352539 C91.49975586 62.10352539 91.49975586 63.09352539 91.49975586 64.11352539 C94.79975586 64.11352539 98.09975586 64.11352539 101.49975586 64.11352539 C101.49975586 63.12352539 101.49975586 62.13352539 101.49975586 61.11352539 C98.19975586 61.11352539 94.89975586 61.11352539 91.49975586 61.11352539 Z M94.49975586 68.11352539 C94.49975586 79.00352539 94.49975586 89.89352539 94.49975586 101.11352539 C95.48975586 101.11352539 96.47975586 101.11352539 97.49975586 101.11352539 C97.49975586 90.22352539 97.49975586 79.33352539 97.49975586 68.11352539 C96.50975586 68.11352539 95.51975586 68.11352539 94.49975586 68.11352539 Z M1.49975586 76.11352539 C1.49975586 79.41352539 1.49975586 82.71352539 1.49975586 86.11352539 C8.42975586 86.11352539 15.35975586 86.11352539 22.49975586 86.11352539 C22.49975586 82.81352539 22.49975586 79.51352539 22.49975586 76.11352539 C15.56975586 76.11352539 8.63975586 76.11352539 1.49975586 76.11352539 Z M1.49975586 91.11352539 C1.49975586 94.41352539 1.49975586 97.71352539 1.49975586 101.11352539 C8.42975586 101.11352539 15.35975586 101.11352539 22.49975586 101.11352539 C22.49975586 97.81352539 22.49975586 94.51352539 22.49975586 91.11352539 C15.56975586 91.11352539 8.63975586 91.11352539 1.49975586 91.11352539 Z " fill="#98CD4D" transform="translate(10.500244140625,6.886474609375)"/>
<path d="M0 0 C0.804375 -0.00128906 1.60875 -0.00257812 2.4375 -0.00390625 C3.283125 -0.00003906 4.12875 0.00382812 5 0.0078125 C6.2684375 0.00201172 6.2684375 0.00201172 7.5625 -0.00390625 C8.366875 -0.00261719 9.17125 -0.00132813 10 0 C10.7425 0.00112793 11.485 0.00225586 12.25 0.00341797 C14 0.1328125 14 0.1328125 15 1.1328125 C14.96148255 3.58904066 14.85466287 5.99740688 14.6875 8.4453125 C14.65205078 9.12271484 14.61660156 9.80011719 14.58007812 10.49804688 C14.3248646 14.39481464 13.78845363 16.55590525 12 20.1328125 C7.38 20.1328125 2.76 20.1328125 -2 20.1328125 C-3.58074211 15.39058617 -4.35007812 12.16038045 -4.6875 7.3203125 C-4.77386719 6.17949219 -4.86023438 5.03867188 -4.94921875 3.86328125 C-4.96597656 2.96222656 -4.98273438 2.06117187 -5 1.1328125 C-3.4779041 -0.3892834 -2.11789918 0.00321729 0 0 Z M0 5.1328125 C0.144375 6.5971875 0.28875 8.0615625 0.4375 9.5703125 C0.51871094 10.39402344 0.59992188 11.21773437 0.68359375 12.06640625 C0.78930815 14.11943275 0.78930815 14.11943275 2 15.1328125 C4.33297433 15.17374187 6.66705225 15.17522973 9 15.1328125 C9.33 11.8328125 9.66 8.5328125 10 5.1328125 C6.7 5.1328125 3.4 5.1328125 0 5.1328125 Z " fill="#98CD4D" transform="translate(83,92.8671875)"/>
<path d="M0 0 C3.5625 0.375 3.5625 0.375 5.5625 2 C6.91448496 5.21096428 6.56701167 7.07446166 5.5625 10.375 C2.5625 12.375 2.5625 12.375 -0.5 12.125 C-3.4375 11.375 -3.4375 11.375 -5.4375 9.375 C-5.6875 5.875 -5.6875 5.875 -5.4375 2.375 C-3.4375 0.375 -3.4375 0.375 0 0 Z M-0.4375 4.375 C-0.4375 5.365 -0.4375 6.355 -0.4375 7.375 C0.2225 6.715 0.8825 6.055 1.5625 5.375 C0.9025 5.045 0.2425 4.715 -0.4375 4.375 Z " fill="#98CD4D" transform="translate(20.4375,29.625)"/>
<path d="M0 0 C2.31 0 4.62 0 7 0 C7.33 1.32 7.66 2.64 8 4 C5.36 4 2.72 4 0 4 C0 2.68 0 1.36 0 0 Z " fill="#98CD4D" transform="translate(19,86)"/>
<path d="M0 0 C2.31 0 4.62 0 7 0 C7.33 1.32 7.66 2.64 8 4 C5.36 4 2.72 4 0 4 C0 2.68 0 1.36 0 0 Z " fill="#98CD4D" transform="translate(19,71)"/>
<path d="M0 0 C2.31 0 4.62 0 7 0 C7 1.32 7 2.64 7 4 C4.69 4 2.38 4 0 4 C0 2.68 0 1.36 0 0 Z " fill="#98CD4D" transform="translate(19,101)"/>
<path d="M0 0 C1.98 0.495 1.98 0.495 4 1 C3.67 2.32 3.34 3.64 3 5 C1.68 4.67 0.36 4.34 -1 4 C-0.67 2.68 -0.34 1.36 0 0 Z " fill="#98CD4D" transform="translate(98,33)"/>
<path d="M0 0 C1.65 0 3.3 0 5 0 C5 1.32 5 2.64 5 4 C3.35 3.67 1.7 3.34 0 3 C0 2.01 0 1.02 0 0 Z " fill="#98CD4D" transform="translate(18,45)"/>
</svg>
