<?xml version="1.0" encoding="UTF-8"?>
<svg version="1.1" xmlns="http://www.w3.org/2000/svg" width="120" height="120">
<path d="M0 0 C3.3 0 6.6 0 10 0 C10.33 1.32 10.66 2.64 11 4 C13.84897525 5.75625772 13.84897525 5.75625772 17.375 7.25 C33.33978702 14.77952069 42.77074039 24.47175883 49 41 C50.69477979 45.8017478 52.25674569 50.64631776 53.80224609 55.49780273 C54.49410128 57.66898858 55.19362845 59.83757947 55.89453125 62.00585938 C59.09727246 71.95584921 62.09332665 81.95983952 65 92 C65.66 92 66.32 92 67 92 C67.433125 91.34 67.86625 90.68 68.3125 90 C70 88 70 88 72.4375 87.5625 C75.41444665 88.07075918 76.83644868 88.91658021 79 91 C79 91.66 79 92.32 79 93 C81.87429306 94.5910096 84.32752388 95.31439031 87.5625 95.8125 C90.78204429 96.50202349 91.76563513 96.75874205 94.125 99.1875 C95.23383607 102.75161594 94.60785733 105.35713671 94 109 C89.94328317 109.07431978 85.88683154 109.12868133 81.82958984 109.16479492 C80.45028782 109.17985422 79.07103347 109.20030613 77.69189453 109.22631836 C75.70626597 109.26282415 73.72028382 109.27814853 71.734375 109.29296875 C70.54038086 109.3086792 69.34638672 109.32438965 68.11621094 109.34057617 C64.724425 108.96988192 63.29215425 108.51364411 61 106 C61 103.84203962 61.01251193 101.68313547 61.09765625 99.52685547 C60.9932109 96.82433194 60.44654322 95.07022763 59.4375 92.5703125 C57.30819814 86.97902073 55.47643866 81.32394638 53.6875 75.6171875 C53.3898877 74.67176086 53.09227539 73.72633423 52.78564453 72.7522583 C51.54070891 68.7939951 50.2994212 64.83461529 49.06347656 60.87353516 C48.15116045 57.95326201 47.23224321 55.0351286 46.3125 52.1171875 C46.03946045 51.23570038 45.7664209 50.35421326 45.48510742 49.4460144 C40.37977255 33.29856404 33.88835951 22.4458273 18.62109375 14.16796875 C15.7674015 12.72933051 12.90237656 11.33722062 10 10 C10 10.66 10 11.32 10 12 C6.7 12 3.4 12 0 12 C0 11.01 0 10.02 0 9 C-4.05671104 11.08317594 -6.30287527 12.71252701 -8 17 C-9.31584901 26.93305531 -6.58089058 34.81250548 -0.6875 42.75 C11.95366013 57.89805687 29.46207153 59.98079341 48 63 C47.67 64.65 47.34 66.3 47 68 C29.87130341 66.67173302 10.45025991 64.09959319 -2 51 C-9.81697292 41.58601111 -14.96869477 31.41682782 -14.41796875 18.98828125 C-13.57231844 12.94227668 -11.70931959 9.36047886 -6.9375 5.5625 C-4 4 -4 4 -1 3 C-0.67 2.01 -0.34 1.02 0 0 Z M4 5 C5 7 5 7 5 7 Z M72 94 C71.67 94.66 71.34 95.32 71 96 C72.32 95.67 73.64 95.34 75 95 C74.01 94.67 73.02 94.34 72 94 Z M66 100 C66 101.32 66 102.64 66 104 C67.32 104 68.64 104 70 104 C70 102.68 70 101.36 70 100 C68.68 100 67.36 100 66 100 Z M75 101 C75 101.99 75 102.98 75 104 C79.95 104 84.9 104 90 104 C89.67 103.01 89.34 102.02 89 101 C84.38 101 79.76 101 75 101 Z " fill="#98CD4D" transform="translate(22,5)"/>
<path d="M0 0 C5.6275153 4.78338801 11.29407149 11.58794681 12.5 19.125 C13.77875 19.24875 15.0575 19.3725 16.375 19.5 C20.25 19.875 20.25 19.875 22.5 22.125 C22.5 23.115 22.5 24.105 22.5 25.125 C23.82 25.125 25.14 25.125 26.5 25.125 C26.5 26.775 26.5 28.425 26.5 30.125 C25.18 30.125 23.86 30.125 22.5 30.125 C22.29246094 30.77082031 22.08492188 31.41664062 21.87109375 32.08203125 C20.5 34.125 20.5 34.125 17.78515625 34.69921875 C16.18994141 34.75529297 16.18994141 34.75529297 14.5625 34.8125 C11.2259124 34.95439619 8.67832803 35.06555732 5.5 36.125 C4.14001307 36.23283444 2.77566924 36.29067503 1.41162109 36.31445312 C0.59422455 36.33117065 -0.223172 36.34788818 -1.06533813 36.3651123 C-1.94354218 36.37868774 -2.82174622 36.39226318 -3.7265625 36.40625 C-4.62998383 36.42465942 -5.53340515 36.44306885 -6.46420288 36.46203613 C-10.33343581 36.54078766 -14.20284132 36.60865292 -18.07226562 36.67724609 C-20.89462276 36.72882841 -23.71682349 36.7861179 -26.5390625 36.84375 C-27.421315 36.85732544 -28.3035675 36.87090088 -29.21255493 36.8848877 C-33.17508027 36.57596186 -33.17508027 36.57596186 -36.5 38.125 C-38.42578125 38.29296875 -38.42578125 38.29296875 -40.8125 38.3125 C-41.98232422 38.33376953 -41.98232422 38.33376953 -43.17578125 38.35546875 C-45.761361 38.09908353 -47.31154411 37.51039589 -49.5 36.125 C-51.92755024 32.60923758 -52.7387201 30.06109025 -52.3125 25.875 C-51.5 22.125 -51.5 22.125 -49.5 20.125 C-49.03496524 16.79963239 -48.71320528 13.50111993 -48.46484375 10.15429688 C-47.98957683 5.30747104 -47.10051622 2.45812037 -43.5 -0.875 C-40.94921875 -1.94921875 -40.94921875 -1.94921875 -38.1875 -2.5625 C-37.21425781 -2.789375 -36.24101563 -3.01625 -35.23828125 -3.25 C-33.88283203 -3.559375 -33.88283203 -3.559375 -32.5 -3.875 C-31.30375 -4.266875 -30.1075 -4.65875 -28.875 -5.0625 C-18.73481362 -7.50365598 -9.0945622 -4.87208689 0 0 Z M-25.5 -0.875 C-25.5 -0.545 -25.5 -0.215 -25.5 0.125 C-21.21 0.455 -16.92 0.785 -12.5 1.125 C-16.24368742 -0.74684371 -17.3400791 -1.11499767 -21.25 -1 C-22.44882812 -0.97292969 -22.44882812 -0.97292969 -23.671875 -0.9453125 C-24.57679687 -0.91050781 -24.57679687 -0.91050781 -25.5 -0.875 Z M-42.5 5.125 C-42.5 6.115 -42.5 7.105 -42.5 8.125 C-41.33597656 8.310625 -41.33597656 8.310625 -40.1484375 8.5 C-31.86908987 10.08078236 -25.8245436 12.86120619 -18.7890625 17.28515625 C-12.57449504 20.76147605 -7.00555135 21.4151595 -0.0625 21.25 C0.66904297 21.24097656 1.40058594 21.23195313 2.15429688 21.22265625 C3.93634298 21.19936153 5.71821759 21.1635019 7.5 21.125 C6.28189883 17.05877822 4.85485306 13.79895269 2.4375 10.3125 C1.91027344 9.54292969 1.38304687 8.77335937 0.83984375 7.98046875 C-0.36826608 6.20363114 -0.36826608 6.20363114 -1.5 5.125 C-3.45120514 4.97880562 -5.40734789 4.89759222 -7.36328125 4.84375 C-9.15862305 4.78767578 -9.15862305 4.78767578 -10.99023438 4.73046875 C-12.25158203 4.69566406 -13.51292969 4.66085938 -14.8125 4.625 C-17.28787443 4.55606229 -19.76314628 4.48330734 -22.23828125 4.40625 C-23.34212158 4.37595703 -24.44596191 4.34566406 -25.58325195 4.31445312 C-28.05713215 4.15376584 -30.13046578 3.79701708 -32.5 3.125 C-37.98464462 2.50459064 -37.98464462 2.50459064 -42.5 5.125 Z M-43.5 13.125 C-43.5 14.445 -43.5 15.765 -43.5 17.125 C-42.88511719 17.28355469 -42.27023438 17.44210938 -41.63671875 17.60546875 C-35.07256461 19.50038406 -35.07256461 19.50038406 -32.4375 22.375 C-31.29499598 25.72634511 -31.43803254 28.60524829 -31.5 32.125 C-26.91019186 32.19947267 -22.32073986 32.25375322 -17.73046875 32.28979492 C-16.17083606 32.30482869 -14.61124528 32.32526135 -13.05175781 32.35131836 C-10.80262884 32.38794211 -8.55406153 32.40478021 -6.3046875 32.41796875 C-5.6138205 32.43345261 -4.92295349 32.44893646 -4.21115112 32.46488953 C0.42082297 32.46647923 3.58131007 31.5957053 7.5 29.125 C8.46044102 27.04809422 8.46044102 27.04809422 8.5 25.125 C7.38882813 25.15980469 6.27765625 25.19460937 5.1328125 25.23046875 C-7.12860406 25.50364985 -15.52631348 24.19650232 -26.05078125 17.5546875 C-31.56596846 14.33529592 -37.08030975 12.63117767 -43.5 13.125 Z M-45.8125 23.8125 C-47.78087944 26.00222477 -47.78087944 26.00222477 -47.375 28.75 C-46.63532087 31.26905125 -46.63532087 31.26905125 -44.5 33.125 C-41.3695827 33.45802312 -39.32101702 33.60171956 -36.5625 32 C-35.23350017 30.03944384 -35.23350017 30.03944384 -35.625 27.0625 C-36.24650413 23.83244585 -36.24650413 23.83244585 -39.5 22.125 C-43.43859697 21.73202062 -43.43859697 21.73202062 -45.8125 23.8125 Z M13.5 25.125 C13.5 26.445 13.5 27.765 13.5 29.125 C14.82 29.125 16.14 29.125 17.5 29.125 C17.5 27.805 17.5 26.485 17.5 25.125 C16.18 25.125 14.86 25.125 13.5 25.125 Z " fill="#98CD4D" transform="translate(55.5,76.875)"/>
<path d="M0 0 C4.49047469 0.27214998 7.17484762 2.19549611 10.4140625 5.109375 C13.07023062 8.27584143 14.35036525 11.9397828 15 16 C14.67 16.66 14.34 17.32 14 18 C12.11328125 17.73046875 12.11328125 17.73046875 10 17 C8.98046875 15.36328125 8.98046875 15.36328125 8.1875 13.3125 C6.09191234 8.64161183 3.05842737 6.0096203 -1 3 C-0.67 2.01 -0.34 1.02 0 0 Z " fill="#98CD4D" transform="translate(82,71)"/>
</svg>
