<?xml version="1.0" encoding="UTF-8"?>
<svg version="1.1" xmlns="http://www.w3.org/2000/svg" width="120" height="120">
<path d="M0 0 C5.05503621 0.65263208 7.79897969 3.36552875 11.63671875 6.5703125 C13.23383241 7.85906024 14.8328544 9.14544597 16.43359375 10.4296875 C17.25666016 11.09419922 18.07972656 11.75871094 18.92773438 12.44335938 C25.26125951 17.47191341 31.85439737 22.16444159 38.38867188 26.92675781 C40.21443582 28.27228527 42.01647941 29.64142455 43.80859375 31.03125 C49.05825513 35.04825608 52.94778662 37.24134359 59.44921875 38.4453125 C60.74650928 41.03989356 60.65349995 43.04978848 60.69921875 45.9453125 C60.725 46.925 60.75078125 47.9046875 60.77734375 48.9140625 C60.6690625 49.749375 60.56078125 50.5846875 60.44921875 51.4453125 C57.44921875 53.4453125 57.44921875 53.4453125 53.44921875 53.4453125 C53.44921875 57.0753125 53.44921875 60.7053125 53.44921875 64.4453125 C51.79921875 64.1153125 50.14921875 63.7853125 48.44921875 63.4453125 C48.44921875 60.1453125 48.44921875 56.8453125 48.44921875 53.4453125 C43.82921875 53.4453125 39.20921875 53.4453125 34.44921875 53.4453125 C33.95421875 51.4653125 33.95421875 51.4653125 33.44921875 49.4453125 C35.06702032 47.82751093 36.90557393 48.22259103 39.140625 48.12890625 C40.08486328 48.08701172 41.02910156 48.04511719 42.00195312 48.00195312 C42.99517578 47.96263672 43.98839844 47.92332031 45.01171875 47.8828125 C46.00880859 47.83962891 47.00589844 47.79644531 48.03320312 47.75195312 C50.50506025 47.64550952 52.97702185 47.54349322 55.44921875 47.4453125 C55.44921875 46.1253125 55.44921875 44.8053125 55.44921875 43.4453125 C19.14921875 43.4453125 -17.15078125 43.4453125 -54.55078125 43.4453125 C-54.55078125 44.7653125 -54.55078125 46.0853125 -54.55078125 47.4453125 C-26.50078125 47.7753125 1.54921875 48.1053125 30.44921875 48.4453125 C30.44921875 50.0953125 30.44921875 51.7453125 30.44921875 53.4453125 C4.70921875 53.4453125 -21.03078125 53.4453125 -47.55078125 53.4453125 C-47.55078125 69.2853125 -47.55078125 85.1253125 -47.55078125 101.4453125 C-49.53078125 101.9403125 -49.53078125 101.9403125 -51.55078125 102.4453125 C-52.55078125 101.4453125 -52.55078125 101.4453125 -52.67103577 99.50279236 C-52.66881516 98.65229813 -52.66659454 97.80180389 -52.66430664 96.92553711 C-52.66423111 95.96461655 -52.66415558 95.00369598 -52.66407776 94.01365662 C-52.65891647 92.9688765 -52.65375519 91.92409637 -52.6484375 90.84765625 C-52.64702255 89.78366104 -52.6456076 88.71966583 -52.64414978 87.62342834 C-52.63853189 84.20986167 -52.62597636 80.7963595 -52.61328125 77.3828125 C-52.60826856 75.07487074 -52.60370525 72.76692795 -52.59960938 70.45898438 C-52.58855665 64.78773824 -52.57180112 59.11652997 -52.55078125 53.4453125 C-53.52015625 53.3009375 -54.48953125 53.1565625 -55.48828125 53.0078125 C-58.55078125 52.4453125 -58.55078125 52.4453125 -59.55078125 51.4453125 C-59.70204356 49.47017583 -59.77251891 47.48853115 -59.80078125 45.5078125 C-59.8265625 44.42628906 -59.85234375 43.34476563 -59.87890625 42.23046875 C-59.770625 41.31136719 -59.66234375 40.39226563 -59.55078125 39.4453125 C-56.55078125 37.4453125 -56.55078125 37.4453125 -53.28515625 36.6171875 C-49.13230493 35.31399148 -46.18381602 33.32713311 -42.80078125 30.6953125 C-41.48725187 29.702764 -40.17343539 28.71059537 -38.859375 27.71875 C-38.16569824 27.18991211 -37.47202148 26.66107422 -36.75732422 26.11621094 C-32.82596179 23.13919783 -28.83962033 20.23679486 -24.86328125 17.3203125 C-1.76486375 0.30810791 -1.76486375 0.30810791 0 0 Z M-3.796875 7.796875 C-4.79219238 8.5693457 -4.79219238 8.5693457 -5.80761719 9.35742188 C-6.52723633 9.92267578 -7.24685547 10.48792969 -7.98828125 11.0703125 C-15.29845971 16.75002673 -22.70584485 22.27407485 -30.21655273 27.68603516 C-30.97137939 28.23565918 -31.72620605 28.7852832 -32.50390625 29.3515625 C-33.16551758 29.82916016 -33.82712891 30.30675781 -34.50878906 30.79882812 C-37.02148326 32.82484554 -39.26841639 35.16294764 -41.55078125 37.4453125 C-13.83078125 37.4453125 13.88921875 37.4453125 42.44921875 37.4453125 C39.28125503 34.27734878 36.73829031 31.75854159 33.2265625 29.2109375 C32.44619629 28.64101074 31.66583008 28.07108398 30.86181641 27.48388672 C30.04503418 26.89365723 29.22825195 26.30342773 28.38671875 25.6953125 C26.68462772 24.4534924 24.98280471 23.21130487 23.28125 21.96875 C22.4557666 21.36772461 21.6302832 20.76669922 20.77978516 20.14746094 C17.69422703 17.89389805 14.63139563 15.61224336 11.57421875 13.3203125 C10.68992188 12.65773438 9.805625 11.99515625 8.89453125 11.3125 C7.15095775 9.98114516 5.44039578 8.60608876 3.75390625 7.203125 C0.32420335 4.58724991 -0.65647859 5.33387024 -3.796875 7.796875 Z " fill="#98CD4D" transform="translate(59.55078125,-0.4453125)"/>
<path d="M0 0 C0 0.66 0 1.32 0 2 C0.99 1.34 1.98 0.68 3 0 C7.15011825 -0.46112425 9.26436615 -0.47407515 12.8125 1.8125 C15.57867194 4.57867194 16.96262262 6.08425413 17.125 10.0625 C17.08375 11.031875 17.0425 12.00125 17 13 C17 13.66 17 14.32 17 15 C19.31491729 12.68508271 19.33212444 11.8284171 19.8125 8.6875 C20.76534698 4.15048245 22.01451526 1.65698983 26 -1 C30.02034924 -0.93185849 32.1176825 -0.8823175 35 2 C34.625 4.625 34.625 4.625 34 7 C33.34 7 32.68 7 32 7 C32.495 7.99 32.495 7.99 33 9 C33.66 8.34 34.32 7.68 35 7 C37.5 6.75 37.5 6.75 40 7 C42 9 42 9 42.4375 12.3125 C42 16 42 16 40 18.875 C37.05139855 20.96359269 36.25480048 21.28188926 32.875 21.5625 C29.00564328 21.59984453 29.00564328 21.59984453 27 23.9375 C25.8545755 25.91791469 25.8545755 25.91791469 26 28 C27.32 28.66 28.64 29.32 30 30 C30 30.66 30 31.32 30 32 C31.32 32.66 32.64 33.32 34 34 C34 34.66 34 35.32 34 36 C34.5775 36.226875 35.155 36.45375 35.75 36.6875 C38.72046866 38.42027339 40.18020872 40.07533544 42 43 C42.4375 46.6875 42.4375 46.6875 42 50 C38.54337669 52.30441554 37.05142119 52.25860135 33 52 C32.01 51.505 32.01 51.505 31 51 C31 50.34 31 49.68 31 49 C30.401875 48.731875 29.80375 48.46375 29.1875 48.1875 C27.00152146 47.00082594 25.58667406 45.90400887 24 44 C24 43.34 24 42.68 24 42 C22.68 41.34 21.36 40.68 20 40 C20 39.34 20 38.68 20 38 C18.35 37.34 16.7 36.68 15 36 C13.39493544 37.01157259 13.39493544 37.01157259 12 39 C11.80670908 40.99733954 11.61351692 42.99468907 11.421875 44.9921875 C10.67915169 48.52700029 8.88341687 49.99414479 6 52 C2.3125 52.4375 2.3125 52.4375 -1 52 C-3 50 -3 50 -3.125 47.375 C-3.063125 46.199375 -3.063125 46.199375 -3 45 C-2.34 45 -1.68 45 -1 45 C-1 44.01 -1 43.02 -1 42 C-1.5775 42.515625 -2.155 43.03125 -2.75 43.5625 C-5 45 -5 45 -7.125 44.875 C-9 44 -9 44 -11 41 C-10.625 37.3125 -10.625 37.3125 -10 34 C-9.34 34 -8.68 34 -8 34 C-8 33.34 -8 32.68 -8 32 C-5.32476358 30.39485815 -3.54138916 29.94465042 -0.375 29.5625 C0.73875 29.376875 1.8525 29.19125 3 29 C3.66 28.01 4.32 27.02 5 26 C4.34 26.33 3.68 26.66 3 27 C-1.05142119 27.25860135 -2.54337669 27.30441554 -6 25 C-6 24.34 -6 23.68 -6 23 C-6.99 22.67 -7.98 22.34 -9 22 C-10.48195419 19.03609162 -10.05746597 16.27556022 -10 13 C-9.7763932 10.0745356 -9.7763932 10.0745356 -11 8 C-11.56390977 2.69924812 -11.56390977 2.69924812 -9.4375 0.0625 C-6.03339271 -1.42134164 -3.56538192 -0.75421541 0 0 Z M-6 4 C-5.67 4.99 -5.34 5.98 -5 7 C-4.34 6.67 -3.68 6.34 -3 6 C-3 5.34 -3 4.68 -3 4 C-3.99 4 -4.98 4 -6 4 Z M0.9375 8.3125 C-0.10083984 9.23482422 -0.10083984 9.23482422 -1.16015625 10.17578125 C-3.18719699 12.06380827 -3.18719699 12.06380827 -5 15 C-4.76700976 17.48522925 -4.15108573 18.7913578 -2.6875 20.8125 C-1.08221875 22.22865594 -1.08221875 22.22865594 0.87890625 21.7421875 C4.62479703 20.43147065 7.35011983 17.9035211 10 15 C11.48472611 11.81117748 11.48472611 11.81117748 12 9 C10.18777466 6.9375006 10.18777466 6.9375006 8 5 C4.28115772 5 3.63852271 5.8740066 0.9375 8.3125 Z M26 6 C25.44082677 8.15681104 24.97134663 10.22349631 24.6875 12.4375 C23.82236213 15.66210479 22.19252347 17.52457028 20 20 C20.66 20.66 21.32 21.32 22 22 C23.37562854 20.71034824 24.70766393 19.37310707 26 18 C26 17.34 26 16.68 26 16 C27.32 15.34 28.64 14.68 30 14 C29.34 13.67 28.68 13.34 28 13 C27.59270772 10.67843403 27.25561323 8.3431213 27 6 C26.67 6 26.34 6 26 6 Z M30 15 C30 15.33 30 15.66 30 16 C31.65 16 33.3 16 35 16 C35 15.67 35 15.34 35 15 C33.35 15 31.7 15 30 15 Z M11 20 C11 24.04863987 12.29319268 25.01557142 15 28 C16.75531056 29.54353295 18.54563533 31.03790053 20.34375 32.53125 C22.52375655 34.46446335 24.18190552 36.7273819 26 39 C27.73251292 40.57646672 29.508834 42.08077634 31.31640625 43.5703125 C32.96767574 44.97255063 34.48963519 46.44831822 36 48 C36.66 47.34 37.32 46.68 38 46 C37.29875 45.319375 36.5975 44.63875 35.875 43.9375 C33.80899207 41.88313155 31.92202418 39.74222309 30.0625 37.5 C27.33155599 34.2578793 24.26369722 31.70817429 21 29 C20.12460897 27.97610514 19.2701102 26.9339761 18.4375 25.875 C16.10361832 23.12221648 14.1792958 21.63506641 11 20 Z M9 30 C8.46375 30.825 7.9275 31.65 7.375 32.5 C5 35 5 35 3.03125 35.26171875 C1.02013239 35.1924955 -0.99004299 35.09725598 -3 35 C-3.66 35.66 -4.32 36.32 -5 37 C-3.081875 37.185625 -3.081875 37.185625 -1.125 37.375 C2.75 37.75 2.75 37.75 5 40 C5.6496875 38.824375 5.6496875 38.824375 6.3125 37.625 C8 35 8 35 11 33 C11 32.01 11 31.02 11 30 C10.34 30 9.68 30 9 30 Z M5 40 C5 41.65 5 43.3 5 45 C5.33 45 5.66 45 6 45 C6 43.35 6 41.7 6 40 C5.67 40 5.34 40 5 40 Z " fill="#98CD4D" transform="translate(78,68)"/>
<path d="M0 0 C0.74958984 0.00902344 1.49917969 0.01804687 2.27148438 0.02734375 C4.11862654 0.05087422 5.96560412 0.08674439 7.8125 0.125 C7.4825 1.775 7.1525 3.425 6.8125 5.125 C0.3775 5.62 0.3775 5.62 -6.1875 6.125 C-6.5175 20.315 -6.8475 34.505 -7.1875 49.125 C0.0725 49.125 7.3325 49.125 14.8125 49.125 C14.8125 50.445 14.8125 51.765 14.8125 53.125 C5.99825308 53.19446967 -2.81589978 53.24779566 -11.6303606 53.28043652 C-15.72315443 53.29610146 -19.81576114 53.31735458 -23.90844727 53.35131836 C-27.85714752 53.38388267 -31.80566765 53.40184677 -35.75449181 53.40963173 C-37.26201908 53.41518054 -38.76953636 53.42601595 -40.27698708 53.44219017 C-42.38645459 53.4639263 -44.49517509 53.46696864 -46.60473633 53.46557617 C-47.80608719 53.47223801 -49.00743805 53.47889984 -50.24519348 53.48576355 C-53.1875 53.125 -53.1875 53.125 -55.07402039 51.73847961 C-56.54284083 49.61009593 -56.58820221 48.19522064 -56.5625 45.625 C-56.57023437 44.8515625 -56.57796875 44.078125 -56.5859375 43.28125 C-56.09091682 40.60231457 -55.33998244 39.75672056 -53.1875 38.125 C-50.86543475 37.42008733 -48.53156932 36.75287571 -46.1875 36.125 C-45.1975 35.465 -44.2075 34.805 -43.1875 34.125 C-37.77910729 33.69576248 -35.38006083 33.60865866 -31.1875 37.125 C-29.99125 37.455 -28.795 37.785 -27.5625 38.125 C-24.1875 39.125 -24.1875 39.125 -22.1875 42.125 C-22.10844936 44.45699388 -22.09951231 46.79332622 -22.1875 49.125 C-18.5575 49.125 -14.9275 49.125 -11.1875 49.125 C-11.20321045 47.7117041 -11.2189209 46.2984082 -11.23510742 44.84228516 C-11.28929078 39.61301341 -11.32380783 34.38376659 -11.35229492 29.15429688 C-11.36740804 26.88830395 -11.38789913 24.6223404 -11.41381836 22.35644531 C-11.45009062 19.10474411 -11.4672009 15.85342864 -11.48046875 12.6015625 C-11.49595261 11.58381744 -11.51143646 10.56607239 -11.52738953 9.51748657 C-11.52761612 8.57666229 -11.52784271 7.63583801 -11.52807617 6.66650391 C-11.53473801 5.83599518 -11.54139984 5.00548645 -11.54826355 4.14981079 C-11.42921158 3.48162323 -11.31015961 2.81343567 -11.1875 2.125 C-7.39586973 -0.40275351 -4.37875969 -0.09943035 0 0 Z M-42.1875 39.125 C-42.8475 40.445 -43.5075 41.765 -44.1875 43.125 C-44.950625 42.898125 -45.71375 42.67125 -46.5 42.4375 C-47.386875 42.334375 -48.27375 42.23125 -49.1875 42.125 C-51.0229799 43.45878575 -51.0229799 43.45878575 -52.1875 45.125 C-51.8575 46.115 -51.5275 47.105 -51.1875 48.125 C-48.81134014 49.31307993 -47.3363258 49.25414522 -44.6875 49.2578125 C-43.800625 49.25910156 -42.91375 49.26039062 -42 49.26171875 C-40.6078125 49.25591797 -40.6078125 49.25591797 -39.1875 49.25 C-38.259375 49.25386719 -37.33125 49.25773437 -36.375 49.26171875 C-35.0446875 49.25978516 -35.0446875 49.25978516 -33.6875 49.2578125 C-32.46546875 49.25612061 -32.46546875 49.25612061 -31.21875 49.25439453 C-29.11899048 49.25301503 -29.11899048 49.25301503 -27.1875 48.125 C-27.1875 46.475 -27.1875 44.825 -27.1875 43.125 C-28.30125 43.021875 -29.415 42.91875 -30.5625 42.8125 C-32.356875 42.4721875 -32.356875 42.4721875 -34.1875 42.125 C-34.8475 41.135 -35.5075 40.145 -36.1875 39.125 C-39.27115871 38.8747843 -39.27115871 38.8747843 -42.1875 39.125 Z " fill="#98CD4D" transform="translate(56.1875,66.875)"/>
<path d="M0 0 C4.269375 -0.020625 8.53875 -0.04125 12.9375 -0.0625 C14.95991821 -0.07615601 14.95991821 -0.07615601 17.02319336 -0.09008789 C18.6030603 -0.09383423 18.6030603 -0.09383423 20.21484375 -0.09765625 C21.84087524 -0.10551147 21.84087524 -0.10551147 23.49975586 -0.11352539 C26 0 26 0 27 1 C27.09959621 2.84159023 27.13080411 4.68696967 27.1328125 6.53125 C27.13474609 8.21154297 27.13474609 8.21154297 27.13671875 9.92578125 C27.13285156 11.10527344 27.12898438 12.28476563 27.125 13.5 C27.13080078 15.26923828 27.13080078 15.26923828 27.13671875 17.07421875 C27.13542969 18.19441406 27.13414063 19.31460938 27.1328125 20.46875 C27.13168457 21.50451172 27.13055664 22.54027344 27.12939453 23.60742188 C27 26 27 26 26 27 C24.07332493 27.08748207 22.14348139 27.10697334 20.21484375 27.09765625 C19.16159912 27.09515869 18.10835449 27.09266113 17.02319336 27.09008789 C15.67491455 27.08098389 14.32663574 27.07187988 12.9375 27.0625 C8.668125 27.041875 4.39875 27.02125 0 27 C0 18.09 0 9.18 0 0 Z M4 5 C4 6.98 4 8.96 4 11 C6.31 11 8.62 11 11 11 C11 9.02 11 7.04 11 5 C8.69 5 6.38 5 4 5 Z M15 5 C15 6.98 15 8.96 15 11 C17.31 11 19.62 11 22 11 C22 9.02 22 7.04 22 5 C19.69 5 17.38 5 15 5 Z M4 16 C4 18.31 4 20.62 4 23 C6.31 23 8.62 23 11 23 C11 20.69 11 18.38 11 16 C8.69 16 6.38 16 4 16 Z M15 16 C15 18.31 15 20.62 15 23 C17.31 23 19.62 23 22 23 C22 20.69 22 18.38 22 16 C19.69 16 17.38 16 15 16 Z " fill="#98CD4D" transform="translate(15,67)"/>
<path d="M0 0 C1.98 0.495 1.98 0.495 4 1 C3.67 2.32 3.34 3.64 3 5 C1.68 4.67 0.36 4.34 -1 4 C-0.67 2.68 -0.34 1.36 0 0 Z " fill="#98CD4D" transform="translate(66,93)"/>
</svg>
